G75*
%MOIN*%
%OFA0B0*%
%FSLAX24Y24*%
%IPPOS*%
%LPD*%
%AMOC8*
5,1,8,0,0,1.08239X$1,22.5*
%
%ADD10C,0.0595*%
%ADD11C,0.0749*%
%ADD12C,0.2836*%
%ADD13R,0.0476X0.0476*%
D10*
X003851Y007700D03*
X003487Y008331D03*
X003851Y008962D03*
X004215Y008331D03*
X004580Y007700D03*
X004944Y008331D03*
X004580Y008962D03*
X010180Y008331D03*
X010544Y007700D03*
X011272Y007700D03*
X010908Y008331D03*
X010544Y008962D03*
X011272Y008962D03*
X011637Y008331D03*
X016873Y008331D03*
X017601Y008331D03*
X017237Y007700D03*
X017965Y007700D03*
X018330Y008331D03*
X017965Y008962D03*
X017237Y008962D03*
X023566Y008331D03*
X023930Y007700D03*
X024658Y007700D03*
X024294Y008331D03*
X023930Y008962D03*
X024658Y008962D03*
X025022Y008331D03*
X018033Y017742D03*
X018033Y018605D03*
X017170Y018605D03*
X017170Y017742D03*
X011340Y017742D03*
X011340Y018605D03*
X010477Y018605D03*
X010477Y017742D03*
X004647Y017742D03*
X004647Y018605D03*
X003784Y018605D03*
X003784Y017742D03*
D11*
X002715Y016674D03*
X002715Y019674D03*
X005715Y019674D03*
X005715Y016674D03*
X009408Y016674D03*
X012408Y016674D03*
X012408Y019674D03*
X009408Y019674D03*
X016101Y019674D03*
X019101Y019674D03*
X019101Y016674D03*
X016101Y016674D03*
X016101Y009831D03*
X019101Y009831D03*
X019101Y006831D03*
X016101Y006831D03*
X012408Y006831D03*
X009408Y006831D03*
X009408Y009831D03*
X012408Y009831D03*
X005715Y009831D03*
X002715Y009831D03*
X002715Y006831D03*
X005715Y006831D03*
X022794Y006831D03*
X025794Y006831D03*
X025794Y009831D03*
X022794Y009831D03*
D12*
X004767Y002189D03*
X014215Y002189D03*
X020121Y002189D03*
X023664Y024237D03*
X014215Y024237D03*
X008310Y024237D03*
D13*
X006656Y011028D03*
X010554Y006618D03*
X011223Y006658D03*
X013605Y010811D03*
X017247Y005949D03*
X019196Y010949D03*
X023920Y005949D03*
M02*
