G75*
%MOIN*%
%OFA0B0*%
%FSLAX24Y24*%
%IPPOS*%
%LPD*%
%AMOC8*
5,1,8,0,0,1.08239X$1,22.5*
%
%ADD10C,0.0160*%
%ADD11C,0.0060*%
%ADD12C,0.0080*%
%ADD13C,0.0157*%
%ADD14C,0.0040*%
%ADD15C,0.0000*%
D10*
X003309Y000910D02*
X003303Y001010D01*
X003293Y001109D01*
X003278Y001208D01*
X003260Y001306D01*
X003238Y001404D01*
X003212Y001500D01*
X003183Y001595D01*
X003149Y001690D01*
X003112Y001782D01*
X003071Y001873D01*
X003027Y001963D01*
X002979Y002051D01*
X002928Y002136D01*
X002874Y002220D01*
X002816Y002301D01*
X002755Y002380D01*
X002691Y002457D01*
X002624Y002531D01*
X002554Y002602D01*
X002481Y002671D01*
X002406Y002736D01*
X002328Y002799D01*
X002248Y002858D01*
X002165Y002914D01*
X002080Y002967D01*
X001994Y003017D01*
X001905Y003063D01*
X001815Y003105D01*
X001723Y003144D01*
X001629Y003180D01*
X001534Y003211D01*
X001438Y003239D01*
X001342Y003263D01*
X001244Y003283D01*
X001145Y003299D01*
X001046Y003311D01*
X000810Y003311D01*
X000810Y003312D02*
X000761Y003314D01*
X000713Y003320D01*
X000665Y003330D01*
X000618Y003343D01*
X000572Y003360D01*
X000528Y003381D01*
X000486Y003405D01*
X000445Y003433D01*
X000407Y003464D01*
X000372Y003498D01*
X000339Y003534D01*
X000310Y003573D01*
X000283Y003614D01*
X000260Y003657D01*
X000241Y003702D01*
X000225Y003748D01*
X000213Y003796D01*
X000205Y003844D01*
X000201Y003893D01*
X000200Y003942D01*
X000200Y003941D02*
X000200Y022032D01*
X000200Y022052D01*
X000180Y022071D01*
X000199Y022032D02*
X000194Y022081D01*
X000193Y022130D01*
X000196Y022180D01*
X000202Y022229D01*
X000212Y022278D01*
X000226Y022325D01*
X000244Y022372D01*
X000265Y022417D01*
X000290Y022460D01*
X000317Y022501D01*
X000348Y022539D01*
X000382Y022576D01*
X000419Y022609D01*
X000458Y022640D01*
X000499Y022667D01*
X000543Y022691D01*
X000588Y022712D01*
X000634Y022729D01*
X000682Y022742D01*
X000731Y022752D01*
X000780Y022758D01*
X000829Y022760D01*
X000830Y022760D02*
X004156Y022760D01*
X004255Y022760D01*
X004157Y022760D02*
X004254Y022767D01*
X004351Y022778D01*
X004447Y022793D01*
X004543Y022811D01*
X004637Y022833D01*
X004731Y022859D01*
X004824Y022889D01*
X004916Y022922D01*
X005006Y022959D01*
X005094Y023000D01*
X005181Y023044D01*
X005266Y023091D01*
X005349Y023142D01*
X005430Y023196D01*
X005509Y023253D01*
X005586Y023313D01*
X005660Y023376D01*
X005732Y023442D01*
X005800Y023511D01*
X005866Y023583D01*
X005930Y023657D01*
X005990Y023733D01*
X006047Y023812D01*
X006101Y023893D01*
X006151Y023977D01*
X006199Y024062D01*
X006243Y024149D01*
X006283Y024237D01*
X006320Y024327D01*
X006353Y024419D01*
X006383Y024512D01*
X006409Y024605D01*
X006431Y024700D01*
X006449Y024796D01*
X006464Y024892D01*
X006475Y024989D01*
X006482Y025086D01*
X006485Y025183D01*
X006484Y025281D01*
X006479Y025378D01*
X006479Y025359D02*
X006467Y025408D01*
X006458Y025458D01*
X006453Y025508D01*
X006452Y025559D01*
X006454Y025609D01*
X006461Y025660D01*
X006470Y025709D01*
X006484Y025758D01*
X006501Y025806D01*
X006521Y025852D01*
X006545Y025897D01*
X006572Y025940D01*
X006602Y025981D01*
X006634Y026020D01*
X006670Y026056D01*
X006708Y026089D01*
X006749Y026119D01*
X006791Y026147D01*
X006836Y026171D01*
X006882Y026192D01*
X006929Y026210D01*
X006978Y026224D01*
X007028Y026234D01*
X007078Y026241D01*
X007128Y026244D01*
X007089Y026244D02*
X024373Y026244D01*
X024373Y026245D02*
X024424Y026247D01*
X024476Y026246D01*
X024527Y026241D01*
X024577Y026232D01*
X024627Y026219D01*
X024676Y026203D01*
X024724Y026184D01*
X024770Y026161D01*
X024814Y026135D01*
X024857Y026106D01*
X024897Y026074D01*
X024934Y026038D01*
X024970Y026001D01*
X025002Y025961D01*
X025031Y025918D01*
X025057Y025874D01*
X025080Y025828D01*
X025099Y025780D01*
X025115Y025731D01*
X025128Y025681D01*
X025137Y025631D01*
X025142Y025580D01*
X025143Y025528D01*
X025141Y025477D01*
X025141Y025535D02*
X025146Y025439D01*
X025155Y025343D01*
X025168Y025247D01*
X025184Y025152D01*
X025204Y025058D01*
X025228Y024964D01*
X025256Y024872D01*
X025287Y024780D01*
X025322Y024690D01*
X025360Y024602D01*
X025401Y024514D01*
X025446Y024429D01*
X025495Y024345D01*
X025546Y024264D01*
X025601Y024184D01*
X025658Y024107D01*
X025719Y024032D01*
X025782Y023959D01*
X025849Y023889D01*
X025918Y023821D01*
X025989Y023757D01*
X026063Y023695D01*
X026140Y023636D01*
X026219Y023580D01*
X026299Y023527D01*
X026382Y023478D01*
X026467Y023431D01*
X026553Y023388D01*
X026641Y023349D01*
X026731Y023312D01*
X026822Y023280D01*
X026914Y023251D01*
X027007Y023225D01*
X027101Y023203D01*
X027196Y023185D01*
X027291Y023171D01*
X027387Y023160D01*
X027483Y023153D01*
X027503Y023154D02*
X027553Y023155D01*
X027604Y023152D01*
X027654Y023146D01*
X027703Y023136D01*
X027752Y023122D01*
X027800Y023105D01*
X027846Y023085D01*
X027890Y023061D01*
X027933Y023034D01*
X027973Y023003D01*
X028012Y022970D01*
X028047Y022935D01*
X028080Y022896D01*
X028111Y022856D01*
X028138Y022813D01*
X028162Y022769D01*
X028182Y022723D01*
X028199Y022675D01*
X028213Y022626D01*
X028223Y022577D01*
X028229Y022527D01*
X028232Y022476D01*
X028231Y022426D01*
X028231Y022386D02*
X028231Y004000D01*
X028231Y004001D02*
X028233Y003949D01*
X028231Y003898D01*
X028226Y003847D01*
X028216Y003796D01*
X028203Y003747D01*
X028187Y003698D01*
X028167Y003651D01*
X028144Y003605D01*
X028117Y003561D01*
X028087Y003519D01*
X028055Y003479D01*
X028019Y003442D01*
X027981Y003408D01*
X027940Y003376D01*
X027898Y003348D01*
X027853Y003322D01*
X027807Y003300D01*
X027759Y003281D01*
X027710Y003266D01*
X027660Y003255D01*
X027609Y003247D01*
X027558Y003243D01*
X027506Y003242D01*
X027455Y003246D01*
X027404Y003253D01*
X027404Y003252D02*
X024334Y003252D01*
X024236Y003246D01*
X024139Y003236D01*
X024042Y003222D01*
X023946Y003204D01*
X023850Y003182D01*
X023756Y003157D01*
X023662Y003128D01*
X023570Y003096D01*
X023479Y003060D01*
X023390Y003020D01*
X023302Y002977D01*
X023216Y002930D01*
X023132Y002881D01*
X023049Y002828D01*
X022969Y002771D01*
X022892Y002712D01*
X022816Y002650D01*
X022743Y002584D01*
X022673Y002516D01*
X022605Y002446D01*
X022540Y002372D01*
X022479Y002297D01*
X022420Y002219D01*
X022364Y002138D01*
X022311Y002056D01*
X022262Y001971D01*
X022216Y001885D01*
X022173Y001797D01*
X022134Y001707D01*
X022099Y001616D01*
X022066Y001524D01*
X022038Y001430D01*
X022013Y001336D01*
X021992Y001240D01*
X021975Y001144D01*
X021962Y001047D01*
X021952Y000949D01*
X021952Y000989D02*
X021949Y000933D01*
X021943Y000879D01*
X021933Y000824D01*
X021920Y000771D01*
X021903Y000719D01*
X021882Y000667D01*
X021858Y000618D01*
X021831Y000570D01*
X021801Y000524D01*
X021767Y000480D01*
X021731Y000438D01*
X021692Y000400D01*
X021650Y000363D01*
X021606Y000330D01*
X021560Y000300D01*
X021512Y000273D01*
X021462Y000249D01*
X021411Y000228D01*
X021359Y000211D01*
X021305Y000198D01*
X021251Y000188D01*
X021196Y000182D01*
X021141Y000180D01*
X021086Y000181D01*
X021125Y000181D01*
X021086Y000181D02*
X003979Y000181D01*
X003959Y000181D02*
X003907Y000187D01*
X003856Y000197D01*
X003806Y000211D01*
X003756Y000228D01*
X003708Y000249D01*
X003662Y000273D01*
X003618Y000301D01*
X003576Y000332D01*
X003536Y000366D01*
X003499Y000403D01*
X003464Y000442D01*
X003433Y000484D01*
X003405Y000529D01*
X003380Y000575D01*
X003359Y000622D01*
X003341Y000672D01*
X003327Y000722D01*
X003317Y000773D01*
X003311Y000825D01*
X003308Y000877D01*
X003309Y000930D01*
D11*
X003245Y011137D02*
X003138Y011243D01*
X003565Y011670D01*
X003565Y011243D01*
X003458Y011137D01*
X003245Y011137D01*
X003138Y011243D02*
X003138Y011670D01*
X003245Y011777D01*
X003458Y011777D01*
X003565Y011670D01*
X003783Y011670D02*
X003783Y011564D01*
X003889Y011457D01*
X004103Y011457D01*
X004210Y011350D01*
X004210Y011243D01*
X004103Y011137D01*
X003889Y011137D01*
X003783Y011243D01*
X003783Y011350D01*
X003889Y011457D01*
X004103Y011457D02*
X004210Y011564D01*
X004210Y011670D01*
X004103Y011777D01*
X003889Y011777D01*
X003783Y011670D01*
X004427Y011670D02*
X004427Y011564D01*
X004534Y011457D01*
X004747Y011457D01*
X004854Y011350D01*
X004854Y011243D01*
X004747Y011137D01*
X004534Y011137D01*
X004427Y011243D01*
X004427Y011350D01*
X004534Y011457D01*
X004747Y011457D02*
X004854Y011564D01*
X004854Y011670D01*
X004747Y011777D01*
X004534Y011777D01*
X004427Y011670D01*
X005072Y011777D02*
X005499Y011777D01*
X005499Y011670D01*
X005072Y011243D01*
X005072Y011137D01*
X005170Y012318D02*
X005384Y012318D01*
X005277Y012318D02*
X005277Y012745D01*
X005170Y012745D01*
X004953Y012745D02*
X004526Y012318D01*
X004308Y012318D02*
X004308Y012745D01*
X004095Y012958D01*
X003881Y012745D01*
X003881Y012318D01*
X003881Y012638D02*
X004308Y012638D01*
X004526Y012745D02*
X004953Y012318D01*
X005600Y012318D02*
X005920Y012318D01*
X006027Y012424D01*
X005920Y012531D01*
X005707Y012531D01*
X005600Y012638D01*
X005707Y012745D01*
X006027Y012745D01*
X005277Y012958D02*
X005277Y013065D01*
X003663Y012638D02*
X003236Y012638D01*
X003019Y012318D02*
X002592Y012958D01*
X003019Y012958D02*
X002592Y012318D01*
X002707Y011777D02*
X002707Y011137D01*
X002920Y011137D02*
X002493Y011137D01*
X002493Y011564D02*
X002707Y011777D01*
X009560Y011564D02*
X009774Y011777D01*
X009774Y011137D01*
X009987Y011137D02*
X009560Y011137D01*
X010205Y011243D02*
X010205Y011670D01*
X010312Y011777D01*
X010525Y011777D01*
X010632Y011670D01*
X010205Y011243D01*
X010312Y011137D01*
X010525Y011137D01*
X010632Y011243D01*
X010632Y011670D01*
X010849Y011670D02*
X010849Y011564D01*
X010956Y011457D01*
X011170Y011457D01*
X011277Y011350D01*
X011277Y011243D01*
X011170Y011137D01*
X010956Y011137D01*
X010849Y011243D01*
X010849Y011350D01*
X010956Y011457D01*
X011170Y011457D02*
X011277Y011564D01*
X011277Y011670D01*
X011170Y011777D01*
X010956Y011777D01*
X010849Y011670D01*
X010928Y012278D02*
X010928Y012705D01*
X011142Y012919D01*
X011355Y012705D01*
X011355Y012278D01*
X011573Y012278D02*
X012000Y012705D01*
X012217Y012705D02*
X012324Y012705D01*
X012324Y012278D01*
X012217Y012278D02*
X012431Y012278D01*
X012647Y012278D02*
X012967Y012278D01*
X013074Y012385D01*
X012967Y012492D01*
X012754Y012492D01*
X012647Y012599D01*
X012754Y012705D01*
X013074Y012705D01*
X012324Y012919D02*
X012324Y013026D01*
X012000Y012278D02*
X011573Y012705D01*
X011355Y012599D02*
X010928Y012599D01*
X010711Y012599D02*
X010284Y012599D01*
X010066Y012812D02*
X010066Y012919D01*
X010066Y012812D02*
X009853Y012599D01*
X009853Y012278D01*
X009853Y012599D02*
X009639Y012812D01*
X009639Y012919D01*
X011494Y011670D02*
X011494Y011564D01*
X011601Y011457D01*
X011814Y011457D01*
X011921Y011350D01*
X011921Y011243D01*
X011814Y011137D01*
X011601Y011137D01*
X011494Y011243D01*
X011494Y011350D01*
X011601Y011457D01*
X011814Y011457D02*
X011921Y011564D01*
X011921Y011670D01*
X011814Y011777D01*
X011601Y011777D01*
X011494Y011670D01*
X012139Y011777D02*
X012566Y011777D01*
X012566Y011670D01*
X012139Y011243D01*
X012139Y011137D01*
X016293Y011137D02*
X016720Y011137D01*
X016506Y011137D02*
X016506Y011777D01*
X016293Y011564D01*
X016937Y011670D02*
X016937Y011243D01*
X017364Y011670D01*
X017364Y011243D01*
X017258Y011137D01*
X017044Y011137D01*
X016937Y011243D01*
X016937Y011670D02*
X017044Y011777D01*
X017258Y011777D01*
X017364Y011670D01*
X017582Y011670D02*
X017582Y011564D01*
X017689Y011457D01*
X017902Y011457D01*
X018009Y011350D01*
X018009Y011243D01*
X017902Y011137D01*
X017689Y011137D01*
X017582Y011243D01*
X017582Y011350D01*
X017689Y011457D01*
X017902Y011457D02*
X018009Y011564D01*
X018009Y011670D01*
X017902Y011777D01*
X017689Y011777D01*
X017582Y011670D01*
X017661Y012337D02*
X017661Y012764D01*
X017874Y012978D01*
X018088Y012764D01*
X018088Y012337D01*
X018305Y012337D02*
X018732Y012764D01*
X018950Y012764D02*
X019056Y012764D01*
X019056Y012337D01*
X018950Y012337D02*
X019163Y012337D01*
X019379Y012337D02*
X019700Y012337D01*
X019806Y012444D01*
X019700Y012551D01*
X019486Y012551D01*
X019379Y012658D01*
X019486Y012764D01*
X019806Y012764D01*
X019056Y012978D02*
X019056Y013085D01*
X018732Y012337D02*
X018305Y012764D01*
X018088Y012658D02*
X017661Y012658D01*
X017443Y012658D02*
X017016Y012658D01*
X016798Y012871D02*
X016371Y012444D01*
X016371Y012337D01*
X016798Y012337D01*
X016798Y012871D02*
X016798Y012978D01*
X016371Y012978D01*
X018226Y011670D02*
X018226Y011564D01*
X018333Y011457D01*
X018547Y011457D01*
X018653Y011350D01*
X018653Y011243D01*
X018547Y011137D01*
X018333Y011137D01*
X018226Y011243D01*
X018226Y011350D01*
X018333Y011457D01*
X018547Y011457D02*
X018653Y011564D01*
X018653Y011670D01*
X018547Y011777D01*
X018333Y011777D01*
X018226Y011670D01*
X018871Y011777D02*
X019298Y011777D01*
X019298Y011670D01*
X018871Y011243D01*
X018871Y011137D01*
X021864Y012377D02*
X022291Y012377D01*
X022508Y012484D02*
X022615Y012590D01*
X022935Y012590D01*
X022935Y012697D02*
X022935Y012377D01*
X022615Y012377D01*
X022508Y012484D01*
X022615Y012804D02*
X022828Y012804D01*
X022935Y012697D01*
X023153Y012697D02*
X023259Y012590D01*
X023473Y012590D01*
X023580Y012484D01*
X023473Y012377D01*
X023153Y012377D01*
X023153Y012697D02*
X023259Y012804D01*
X023580Y012804D01*
X023797Y012697D02*
X023797Y012484D01*
X023904Y012377D01*
X024117Y012377D01*
X024224Y012590D02*
X023797Y012590D01*
X023797Y012697D02*
X023904Y012804D01*
X024117Y012804D01*
X024224Y012697D01*
X024224Y012590D01*
X024442Y012590D02*
X024655Y012804D01*
X024762Y012804D01*
X024442Y012804D02*
X024442Y012377D01*
X024401Y011836D02*
X024615Y011836D01*
X024721Y011729D01*
X024721Y011623D01*
X024615Y011516D01*
X024401Y011516D01*
X024294Y011623D01*
X024294Y011729D01*
X024401Y011836D01*
X024401Y011516D02*
X024294Y011409D01*
X024294Y011302D01*
X024401Y011196D01*
X024615Y011196D01*
X024721Y011302D01*
X024721Y011409D01*
X024615Y011516D01*
X024939Y011623D02*
X024939Y011729D01*
X025046Y011836D01*
X025259Y011836D01*
X025366Y011729D01*
X025366Y011623D01*
X025259Y011516D01*
X025046Y011516D01*
X024939Y011623D01*
X025046Y011516D02*
X024939Y011409D01*
X024939Y011302D01*
X025046Y011196D01*
X025259Y011196D01*
X025366Y011302D01*
X025366Y011409D01*
X025259Y011516D01*
X025583Y011302D02*
X025583Y011196D01*
X025583Y011302D02*
X026011Y011729D01*
X026011Y011836D01*
X025583Y011836D01*
X025623Y012377D02*
X025623Y013017D01*
X025623Y012697D02*
X026050Y012697D01*
X026268Y012697D02*
X026268Y012484D01*
X026375Y012377D01*
X026588Y012377D01*
X026695Y012590D02*
X026268Y012590D01*
X026268Y012697D02*
X026375Y012804D01*
X026588Y012804D01*
X026695Y012697D01*
X026695Y012590D01*
X026913Y012484D02*
X027019Y012590D01*
X027340Y012590D01*
X027340Y012697D02*
X027233Y012804D01*
X027019Y012804D01*
X026913Y012484D02*
X027019Y012377D01*
X027340Y012377D01*
X027340Y012697D01*
X027557Y012697D02*
X027664Y012804D01*
X027984Y012804D01*
X027984Y013017D02*
X027984Y012377D01*
X027664Y012377D01*
X027557Y012484D01*
X027557Y012697D01*
X026050Y013017D02*
X026050Y012377D01*
X024077Y011729D02*
X024077Y011302D01*
X023970Y011196D01*
X023757Y011196D01*
X023650Y011302D01*
X024077Y011729D01*
X023970Y011836D01*
X023757Y011836D01*
X023650Y011729D01*
X023650Y011302D01*
X023432Y011196D02*
X023005Y011196D01*
X023219Y011196D02*
X023219Y011836D01*
X023005Y011623D01*
X021864Y012377D02*
X021864Y013017D01*
X020895Y021373D02*
X020895Y021800D01*
X021108Y021800D02*
X020895Y021586D01*
X020677Y021586D02*
X020677Y021693D01*
X020570Y021800D01*
X020357Y021800D01*
X020250Y021693D01*
X020250Y021480D01*
X020357Y021373D01*
X020570Y021373D01*
X020677Y021586D02*
X020250Y021586D01*
X020032Y021800D02*
X019819Y021373D01*
X019605Y021800D01*
X019282Y021800D02*
X019282Y021373D01*
X019176Y021373D02*
X019389Y021373D01*
X019282Y021800D02*
X019176Y021800D01*
X019282Y022013D02*
X019282Y022120D01*
X018958Y021693D02*
X018958Y021586D01*
X018531Y021586D01*
X018531Y021480D02*
X018531Y021693D01*
X018638Y021800D01*
X018851Y021800D01*
X018958Y021693D01*
X018638Y021373D02*
X018531Y021480D01*
X018638Y021373D02*
X018851Y021373D01*
X018314Y021373D02*
X017993Y021373D01*
X017887Y021480D01*
X017887Y021693D01*
X017993Y021800D01*
X018314Y021800D01*
X017669Y021693D02*
X017669Y021586D01*
X017242Y021586D01*
X017242Y021480D02*
X017242Y021693D01*
X017349Y021800D01*
X017562Y021800D01*
X017669Y021693D01*
X017562Y021373D02*
X017349Y021373D01*
X017242Y021480D01*
X017025Y021373D02*
X016811Y021586D01*
X016918Y021586D02*
X016598Y021586D01*
X016598Y021373D02*
X016598Y022013D01*
X016918Y022013D01*
X017025Y021907D01*
X017025Y021693D01*
X016918Y021586D01*
X016380Y021693D02*
X015953Y021693D01*
X015735Y021907D02*
X015735Y022013D01*
X015308Y022013D01*
X015735Y021907D02*
X015308Y021480D01*
X015308Y021373D01*
X015735Y021373D01*
X014404Y021780D02*
X014297Y021780D01*
X014083Y021567D01*
X014083Y021780D02*
X014083Y021353D01*
X013866Y021567D02*
X013439Y021567D01*
X013439Y021673D02*
X013439Y021460D01*
X013546Y021353D01*
X013759Y021353D01*
X013866Y021567D02*
X013866Y021673D01*
X013759Y021780D01*
X013546Y021780D01*
X013439Y021673D01*
X013221Y021780D02*
X013008Y021353D01*
X012794Y021780D01*
X012471Y021780D02*
X012471Y021353D01*
X012365Y021353D02*
X012578Y021353D01*
X012471Y021780D02*
X012365Y021780D01*
X012471Y021994D02*
X012471Y022100D01*
X012147Y021673D02*
X012147Y021567D01*
X011720Y021567D01*
X011720Y021673D02*
X011720Y021460D01*
X011827Y021353D01*
X012040Y021353D01*
X012147Y021673D02*
X012040Y021780D01*
X011827Y021780D01*
X011720Y021673D01*
X011503Y021780D02*
X011182Y021780D01*
X011076Y021673D01*
X011076Y021460D01*
X011182Y021353D01*
X011503Y021353D01*
X010858Y021567D02*
X010858Y021673D01*
X010751Y021780D01*
X010538Y021780D01*
X010431Y021673D01*
X010431Y021460D01*
X010538Y021353D01*
X010751Y021353D01*
X010858Y021567D02*
X010431Y021567D01*
X010214Y021673D02*
X010107Y021567D01*
X009787Y021567D01*
X010000Y021567D02*
X010214Y021353D01*
X009787Y021353D02*
X009787Y021994D01*
X010107Y021994D01*
X010214Y021887D01*
X010214Y021673D01*
X009569Y021673D02*
X009142Y021673D01*
X008924Y021887D02*
X008924Y021994D01*
X008924Y021887D02*
X008711Y021673D01*
X008711Y021353D01*
X008711Y021673D02*
X008497Y021887D01*
X008497Y021994D01*
X007750Y021800D02*
X007643Y021800D01*
X007430Y021586D01*
X007430Y021373D02*
X007430Y021800D01*
X007212Y021693D02*
X007212Y021586D01*
X006785Y021586D01*
X006785Y021480D02*
X006785Y021693D01*
X006892Y021800D01*
X007106Y021800D01*
X007212Y021693D01*
X007106Y021373D02*
X006892Y021373D01*
X006785Y021480D01*
X006568Y021800D02*
X006354Y021373D01*
X006141Y021800D01*
X005818Y021800D02*
X005818Y021373D01*
X005711Y021373D02*
X005925Y021373D01*
X005494Y021586D02*
X005067Y021586D01*
X005067Y021480D02*
X005067Y021693D01*
X005173Y021800D01*
X005387Y021800D01*
X005494Y021693D01*
X005494Y021586D01*
X005387Y021373D02*
X005173Y021373D01*
X005067Y021480D01*
X004849Y021373D02*
X004529Y021373D01*
X004422Y021480D01*
X004422Y021693D01*
X004529Y021800D01*
X004849Y021800D01*
X004205Y021693D02*
X004205Y021586D01*
X003778Y021586D01*
X003778Y021480D02*
X003778Y021693D01*
X003884Y021800D01*
X004098Y021800D01*
X004205Y021693D01*
X003884Y021373D02*
X003778Y021480D01*
X003884Y021373D02*
X004098Y021373D01*
X003560Y021373D02*
X003346Y021586D01*
X003453Y021586D02*
X003133Y021586D01*
X003133Y021373D02*
X003133Y022013D01*
X003453Y022013D01*
X003560Y021907D01*
X003560Y021693D01*
X003453Y021586D01*
X002915Y021693D02*
X002488Y021693D01*
X002271Y022013D02*
X001844Y021373D01*
X002271Y021373D02*
X001844Y022013D01*
X005711Y021800D02*
X005818Y021800D01*
X005818Y022013D02*
X005818Y022120D01*
X021108Y021800D02*
X021215Y021800D01*
D12*
X019924Y020496D02*
X019924Y015851D01*
X015278Y015851D01*
X015278Y020496D01*
X019924Y020496D01*
X015710Y018174D02*
X015712Y018261D01*
X015718Y018347D01*
X015728Y018433D01*
X015742Y018519D01*
X015760Y018604D01*
X015781Y018688D01*
X015807Y018771D01*
X015836Y018852D01*
X015869Y018933D01*
X015905Y019011D01*
X015946Y019088D01*
X015989Y019163D01*
X016036Y019236D01*
X016087Y019306D01*
X016140Y019375D01*
X016197Y019440D01*
X016256Y019503D01*
X016319Y019564D01*
X016384Y019621D01*
X016451Y019675D01*
X016521Y019726D01*
X016594Y019774D01*
X016668Y019819D01*
X016744Y019860D01*
X016823Y019897D01*
X016902Y019931D01*
X016984Y019961D01*
X017066Y019988D01*
X017150Y020010D01*
X017235Y020029D01*
X017320Y020044D01*
X017406Y020055D01*
X017493Y020062D01*
X017579Y020065D01*
X017666Y020064D01*
X017753Y020059D01*
X017839Y020050D01*
X017925Y020037D01*
X018010Y020020D01*
X018094Y020000D01*
X018177Y019975D01*
X018259Y019947D01*
X018340Y019915D01*
X018419Y019879D01*
X018496Y019840D01*
X018571Y019797D01*
X018645Y019751D01*
X018716Y019701D01*
X018785Y019649D01*
X018851Y019593D01*
X018915Y019534D01*
X018976Y019472D01*
X019034Y019408D01*
X019089Y019341D01*
X019141Y019271D01*
X019190Y019200D01*
X019235Y019126D01*
X019277Y019050D01*
X019315Y018972D01*
X019350Y018893D01*
X019381Y018812D01*
X019409Y018729D01*
X019432Y018646D01*
X019452Y018562D01*
X019468Y018476D01*
X019480Y018390D01*
X019488Y018304D01*
X019492Y018217D01*
X019492Y018131D01*
X019488Y018044D01*
X019480Y017958D01*
X019468Y017872D01*
X019452Y017786D01*
X019432Y017702D01*
X019409Y017619D01*
X019381Y017536D01*
X019350Y017455D01*
X019315Y017376D01*
X019277Y017298D01*
X019235Y017222D01*
X019190Y017148D01*
X019141Y017077D01*
X019089Y017007D01*
X019034Y016940D01*
X018976Y016876D01*
X018915Y016814D01*
X018851Y016755D01*
X018785Y016699D01*
X018716Y016647D01*
X018645Y016597D01*
X018571Y016551D01*
X018496Y016508D01*
X018419Y016469D01*
X018340Y016433D01*
X018259Y016401D01*
X018177Y016373D01*
X018094Y016348D01*
X018010Y016328D01*
X017925Y016311D01*
X017839Y016298D01*
X017753Y016289D01*
X017666Y016284D01*
X017579Y016283D01*
X017493Y016286D01*
X017406Y016293D01*
X017320Y016304D01*
X017235Y016319D01*
X017150Y016338D01*
X017066Y016360D01*
X016984Y016387D01*
X016902Y016417D01*
X016823Y016451D01*
X016744Y016488D01*
X016668Y016529D01*
X016594Y016574D01*
X016521Y016622D01*
X016451Y016673D01*
X016384Y016727D01*
X016319Y016784D01*
X016256Y016845D01*
X016197Y016908D01*
X016140Y016973D01*
X016087Y017042D01*
X016036Y017112D01*
X015989Y017185D01*
X015946Y017260D01*
X015905Y017337D01*
X015869Y017415D01*
X015836Y017496D01*
X015807Y017577D01*
X015781Y017660D01*
X015760Y017744D01*
X015742Y017829D01*
X015728Y017915D01*
X015718Y018001D01*
X015712Y018087D01*
X015710Y018174D01*
X015475Y018174D02*
X015477Y018266D01*
X015483Y018358D01*
X015493Y018450D01*
X015507Y018541D01*
X015525Y018631D01*
X015546Y018721D01*
X015572Y018809D01*
X015601Y018896D01*
X015635Y018982D01*
X015671Y019067D01*
X015712Y019149D01*
X015756Y019230D01*
X015803Y019309D01*
X015854Y019386D01*
X015909Y019461D01*
X015966Y019533D01*
X016026Y019602D01*
X016090Y019669D01*
X016156Y019733D01*
X016225Y019794D01*
X016296Y019852D01*
X016370Y019907D01*
X016446Y019959D01*
X016525Y020007D01*
X016605Y020052D01*
X016687Y020094D01*
X016771Y020131D01*
X016857Y020166D01*
X016944Y020196D01*
X017032Y020223D01*
X017122Y020245D01*
X017212Y020264D01*
X017303Y020279D01*
X017394Y020290D01*
X017486Y020297D01*
X017578Y020300D01*
X017670Y020299D01*
X017762Y020294D01*
X017854Y020285D01*
X017945Y020272D01*
X018036Y020255D01*
X018125Y020234D01*
X018214Y020210D01*
X018302Y020181D01*
X018388Y020149D01*
X018473Y020113D01*
X018556Y020073D01*
X018637Y020030D01*
X018717Y019984D01*
X018794Y019934D01*
X018869Y019880D01*
X018942Y019824D01*
X019012Y019764D01*
X019080Y019702D01*
X019144Y019636D01*
X019206Y019568D01*
X019265Y019497D01*
X019321Y019424D01*
X019373Y019348D01*
X019423Y019270D01*
X019468Y019190D01*
X019511Y019108D01*
X019549Y019025D01*
X019584Y018939D01*
X019616Y018853D01*
X019643Y018765D01*
X019667Y018676D01*
X019687Y018586D01*
X019703Y018495D01*
X019715Y018404D01*
X019723Y018312D01*
X019727Y018220D01*
X019727Y018128D01*
X019723Y018036D01*
X019715Y017944D01*
X019703Y017853D01*
X019687Y017762D01*
X019667Y017672D01*
X019643Y017583D01*
X019616Y017495D01*
X019584Y017409D01*
X019549Y017323D01*
X019511Y017240D01*
X019468Y017158D01*
X019423Y017078D01*
X019373Y017000D01*
X019321Y016924D01*
X019265Y016851D01*
X019206Y016780D01*
X019144Y016712D01*
X019080Y016646D01*
X019012Y016584D01*
X018942Y016524D01*
X018869Y016468D01*
X018794Y016414D01*
X018717Y016364D01*
X018637Y016318D01*
X018556Y016275D01*
X018473Y016235D01*
X018388Y016199D01*
X018302Y016167D01*
X018214Y016138D01*
X018125Y016114D01*
X018036Y016093D01*
X017945Y016076D01*
X017854Y016063D01*
X017762Y016054D01*
X017670Y016049D01*
X017578Y016048D01*
X017486Y016051D01*
X017394Y016058D01*
X017303Y016069D01*
X017212Y016084D01*
X017122Y016103D01*
X017032Y016125D01*
X016944Y016152D01*
X016857Y016182D01*
X016771Y016217D01*
X016687Y016254D01*
X016605Y016296D01*
X016525Y016341D01*
X016446Y016389D01*
X016370Y016441D01*
X016296Y016496D01*
X016225Y016554D01*
X016156Y016615D01*
X016090Y016679D01*
X016026Y016746D01*
X015966Y016815D01*
X015909Y016887D01*
X015854Y016962D01*
X015803Y017039D01*
X015756Y017118D01*
X015712Y017199D01*
X015671Y017281D01*
X015635Y017366D01*
X015601Y017452D01*
X015572Y017539D01*
X015546Y017627D01*
X015525Y017717D01*
X015507Y017807D01*
X015493Y017898D01*
X015483Y017990D01*
X015477Y018082D01*
X015475Y018174D01*
X013231Y020496D02*
X013231Y015851D01*
X008586Y015851D01*
X008586Y020496D01*
X013231Y020496D01*
X009017Y018174D02*
X009019Y018261D01*
X009025Y018347D01*
X009035Y018433D01*
X009049Y018519D01*
X009067Y018604D01*
X009088Y018688D01*
X009114Y018771D01*
X009143Y018852D01*
X009176Y018933D01*
X009212Y019011D01*
X009253Y019088D01*
X009296Y019163D01*
X009343Y019236D01*
X009394Y019306D01*
X009447Y019375D01*
X009504Y019440D01*
X009563Y019503D01*
X009626Y019564D01*
X009691Y019621D01*
X009758Y019675D01*
X009828Y019726D01*
X009901Y019774D01*
X009975Y019819D01*
X010051Y019860D01*
X010130Y019897D01*
X010209Y019931D01*
X010291Y019961D01*
X010373Y019988D01*
X010457Y020010D01*
X010542Y020029D01*
X010627Y020044D01*
X010713Y020055D01*
X010800Y020062D01*
X010886Y020065D01*
X010973Y020064D01*
X011060Y020059D01*
X011146Y020050D01*
X011232Y020037D01*
X011317Y020020D01*
X011401Y020000D01*
X011484Y019975D01*
X011566Y019947D01*
X011647Y019915D01*
X011726Y019879D01*
X011803Y019840D01*
X011878Y019797D01*
X011952Y019751D01*
X012023Y019701D01*
X012092Y019649D01*
X012158Y019593D01*
X012222Y019534D01*
X012283Y019472D01*
X012341Y019408D01*
X012396Y019341D01*
X012448Y019271D01*
X012497Y019200D01*
X012542Y019126D01*
X012584Y019050D01*
X012622Y018972D01*
X012657Y018893D01*
X012688Y018812D01*
X012716Y018729D01*
X012739Y018646D01*
X012759Y018562D01*
X012775Y018476D01*
X012787Y018390D01*
X012795Y018304D01*
X012799Y018217D01*
X012799Y018131D01*
X012795Y018044D01*
X012787Y017958D01*
X012775Y017872D01*
X012759Y017786D01*
X012739Y017702D01*
X012716Y017619D01*
X012688Y017536D01*
X012657Y017455D01*
X012622Y017376D01*
X012584Y017298D01*
X012542Y017222D01*
X012497Y017148D01*
X012448Y017077D01*
X012396Y017007D01*
X012341Y016940D01*
X012283Y016876D01*
X012222Y016814D01*
X012158Y016755D01*
X012092Y016699D01*
X012023Y016647D01*
X011952Y016597D01*
X011878Y016551D01*
X011803Y016508D01*
X011726Y016469D01*
X011647Y016433D01*
X011566Y016401D01*
X011484Y016373D01*
X011401Y016348D01*
X011317Y016328D01*
X011232Y016311D01*
X011146Y016298D01*
X011060Y016289D01*
X010973Y016284D01*
X010886Y016283D01*
X010800Y016286D01*
X010713Y016293D01*
X010627Y016304D01*
X010542Y016319D01*
X010457Y016338D01*
X010373Y016360D01*
X010291Y016387D01*
X010209Y016417D01*
X010130Y016451D01*
X010051Y016488D01*
X009975Y016529D01*
X009901Y016574D01*
X009828Y016622D01*
X009758Y016673D01*
X009691Y016727D01*
X009626Y016784D01*
X009563Y016845D01*
X009504Y016908D01*
X009447Y016973D01*
X009394Y017042D01*
X009343Y017112D01*
X009296Y017185D01*
X009253Y017260D01*
X009212Y017337D01*
X009176Y017415D01*
X009143Y017496D01*
X009114Y017577D01*
X009088Y017660D01*
X009067Y017744D01*
X009049Y017829D01*
X009035Y017915D01*
X009025Y018001D01*
X009019Y018087D01*
X009017Y018174D01*
X008782Y018174D02*
X008784Y018266D01*
X008790Y018358D01*
X008800Y018450D01*
X008814Y018541D01*
X008832Y018631D01*
X008853Y018721D01*
X008879Y018809D01*
X008908Y018896D01*
X008942Y018982D01*
X008978Y019067D01*
X009019Y019149D01*
X009063Y019230D01*
X009110Y019309D01*
X009161Y019386D01*
X009216Y019461D01*
X009273Y019533D01*
X009333Y019602D01*
X009397Y019669D01*
X009463Y019733D01*
X009532Y019794D01*
X009603Y019852D01*
X009677Y019907D01*
X009753Y019959D01*
X009832Y020007D01*
X009912Y020052D01*
X009994Y020094D01*
X010078Y020131D01*
X010164Y020166D01*
X010251Y020196D01*
X010339Y020223D01*
X010429Y020245D01*
X010519Y020264D01*
X010610Y020279D01*
X010701Y020290D01*
X010793Y020297D01*
X010885Y020300D01*
X010977Y020299D01*
X011069Y020294D01*
X011161Y020285D01*
X011252Y020272D01*
X011343Y020255D01*
X011432Y020234D01*
X011521Y020210D01*
X011609Y020181D01*
X011695Y020149D01*
X011780Y020113D01*
X011863Y020073D01*
X011944Y020030D01*
X012024Y019984D01*
X012101Y019934D01*
X012176Y019880D01*
X012249Y019824D01*
X012319Y019764D01*
X012387Y019702D01*
X012451Y019636D01*
X012513Y019568D01*
X012572Y019497D01*
X012628Y019424D01*
X012680Y019348D01*
X012730Y019270D01*
X012775Y019190D01*
X012818Y019108D01*
X012856Y019025D01*
X012891Y018939D01*
X012923Y018853D01*
X012950Y018765D01*
X012974Y018676D01*
X012994Y018586D01*
X013010Y018495D01*
X013022Y018404D01*
X013030Y018312D01*
X013034Y018220D01*
X013034Y018128D01*
X013030Y018036D01*
X013022Y017944D01*
X013010Y017853D01*
X012994Y017762D01*
X012974Y017672D01*
X012950Y017583D01*
X012923Y017495D01*
X012891Y017409D01*
X012856Y017323D01*
X012818Y017240D01*
X012775Y017158D01*
X012730Y017078D01*
X012680Y017000D01*
X012628Y016924D01*
X012572Y016851D01*
X012513Y016780D01*
X012451Y016712D01*
X012387Y016646D01*
X012319Y016584D01*
X012249Y016524D01*
X012176Y016468D01*
X012101Y016414D01*
X012024Y016364D01*
X011944Y016318D01*
X011863Y016275D01*
X011780Y016235D01*
X011695Y016199D01*
X011609Y016167D01*
X011521Y016138D01*
X011432Y016114D01*
X011343Y016093D01*
X011252Y016076D01*
X011161Y016063D01*
X011069Y016054D01*
X010977Y016049D01*
X010885Y016048D01*
X010793Y016051D01*
X010701Y016058D01*
X010610Y016069D01*
X010519Y016084D01*
X010429Y016103D01*
X010339Y016125D01*
X010251Y016152D01*
X010164Y016182D01*
X010078Y016217D01*
X009994Y016254D01*
X009912Y016296D01*
X009832Y016341D01*
X009753Y016389D01*
X009677Y016441D01*
X009603Y016496D01*
X009532Y016554D01*
X009463Y016615D01*
X009397Y016679D01*
X009333Y016746D01*
X009273Y016815D01*
X009216Y016887D01*
X009161Y016962D01*
X009110Y017039D01*
X009063Y017118D01*
X009019Y017199D01*
X008978Y017281D01*
X008942Y017366D01*
X008908Y017452D01*
X008879Y017539D01*
X008853Y017627D01*
X008832Y017717D01*
X008814Y017807D01*
X008800Y017898D01*
X008790Y017990D01*
X008784Y018082D01*
X008782Y018174D01*
X006538Y020496D02*
X006538Y015851D01*
X001893Y015851D01*
X001893Y020496D01*
X006538Y020496D01*
X002324Y018174D02*
X002326Y018261D01*
X002332Y018347D01*
X002342Y018433D01*
X002356Y018519D01*
X002374Y018604D01*
X002395Y018688D01*
X002421Y018771D01*
X002450Y018852D01*
X002483Y018933D01*
X002519Y019011D01*
X002560Y019088D01*
X002603Y019163D01*
X002650Y019236D01*
X002701Y019306D01*
X002754Y019375D01*
X002811Y019440D01*
X002870Y019503D01*
X002933Y019564D01*
X002998Y019621D01*
X003065Y019675D01*
X003135Y019726D01*
X003208Y019774D01*
X003282Y019819D01*
X003358Y019860D01*
X003437Y019897D01*
X003516Y019931D01*
X003598Y019961D01*
X003680Y019988D01*
X003764Y020010D01*
X003849Y020029D01*
X003934Y020044D01*
X004020Y020055D01*
X004107Y020062D01*
X004193Y020065D01*
X004280Y020064D01*
X004367Y020059D01*
X004453Y020050D01*
X004539Y020037D01*
X004624Y020020D01*
X004708Y020000D01*
X004791Y019975D01*
X004873Y019947D01*
X004954Y019915D01*
X005033Y019879D01*
X005110Y019840D01*
X005185Y019797D01*
X005259Y019751D01*
X005330Y019701D01*
X005399Y019649D01*
X005465Y019593D01*
X005529Y019534D01*
X005590Y019472D01*
X005648Y019408D01*
X005703Y019341D01*
X005755Y019271D01*
X005804Y019200D01*
X005849Y019126D01*
X005891Y019050D01*
X005929Y018972D01*
X005964Y018893D01*
X005995Y018812D01*
X006023Y018729D01*
X006046Y018646D01*
X006066Y018562D01*
X006082Y018476D01*
X006094Y018390D01*
X006102Y018304D01*
X006106Y018217D01*
X006106Y018131D01*
X006102Y018044D01*
X006094Y017958D01*
X006082Y017872D01*
X006066Y017786D01*
X006046Y017702D01*
X006023Y017619D01*
X005995Y017536D01*
X005964Y017455D01*
X005929Y017376D01*
X005891Y017298D01*
X005849Y017222D01*
X005804Y017148D01*
X005755Y017077D01*
X005703Y017007D01*
X005648Y016940D01*
X005590Y016876D01*
X005529Y016814D01*
X005465Y016755D01*
X005399Y016699D01*
X005330Y016647D01*
X005259Y016597D01*
X005185Y016551D01*
X005110Y016508D01*
X005033Y016469D01*
X004954Y016433D01*
X004873Y016401D01*
X004791Y016373D01*
X004708Y016348D01*
X004624Y016328D01*
X004539Y016311D01*
X004453Y016298D01*
X004367Y016289D01*
X004280Y016284D01*
X004193Y016283D01*
X004107Y016286D01*
X004020Y016293D01*
X003934Y016304D01*
X003849Y016319D01*
X003764Y016338D01*
X003680Y016360D01*
X003598Y016387D01*
X003516Y016417D01*
X003437Y016451D01*
X003358Y016488D01*
X003282Y016529D01*
X003208Y016574D01*
X003135Y016622D01*
X003065Y016673D01*
X002998Y016727D01*
X002933Y016784D01*
X002870Y016845D01*
X002811Y016908D01*
X002754Y016973D01*
X002701Y017042D01*
X002650Y017112D01*
X002603Y017185D01*
X002560Y017260D01*
X002519Y017337D01*
X002483Y017415D01*
X002450Y017496D01*
X002421Y017577D01*
X002395Y017660D01*
X002374Y017744D01*
X002356Y017829D01*
X002342Y017915D01*
X002332Y018001D01*
X002326Y018087D01*
X002324Y018174D01*
X002089Y018174D02*
X002091Y018266D01*
X002097Y018358D01*
X002107Y018450D01*
X002121Y018541D01*
X002139Y018631D01*
X002160Y018721D01*
X002186Y018809D01*
X002215Y018896D01*
X002249Y018982D01*
X002285Y019067D01*
X002326Y019149D01*
X002370Y019230D01*
X002417Y019309D01*
X002468Y019386D01*
X002523Y019461D01*
X002580Y019533D01*
X002640Y019602D01*
X002704Y019669D01*
X002770Y019733D01*
X002839Y019794D01*
X002910Y019852D01*
X002984Y019907D01*
X003060Y019959D01*
X003139Y020007D01*
X003219Y020052D01*
X003301Y020094D01*
X003385Y020131D01*
X003471Y020166D01*
X003558Y020196D01*
X003646Y020223D01*
X003736Y020245D01*
X003826Y020264D01*
X003917Y020279D01*
X004008Y020290D01*
X004100Y020297D01*
X004192Y020300D01*
X004284Y020299D01*
X004376Y020294D01*
X004468Y020285D01*
X004559Y020272D01*
X004650Y020255D01*
X004739Y020234D01*
X004828Y020210D01*
X004916Y020181D01*
X005002Y020149D01*
X005087Y020113D01*
X005170Y020073D01*
X005251Y020030D01*
X005331Y019984D01*
X005408Y019934D01*
X005483Y019880D01*
X005556Y019824D01*
X005626Y019764D01*
X005694Y019702D01*
X005758Y019636D01*
X005820Y019568D01*
X005879Y019497D01*
X005935Y019424D01*
X005987Y019348D01*
X006037Y019270D01*
X006082Y019190D01*
X006125Y019108D01*
X006163Y019025D01*
X006198Y018939D01*
X006230Y018853D01*
X006257Y018765D01*
X006281Y018676D01*
X006301Y018586D01*
X006317Y018495D01*
X006329Y018404D01*
X006337Y018312D01*
X006341Y018220D01*
X006341Y018128D01*
X006337Y018036D01*
X006329Y017944D01*
X006317Y017853D01*
X006301Y017762D01*
X006281Y017672D01*
X006257Y017583D01*
X006230Y017495D01*
X006198Y017409D01*
X006163Y017323D01*
X006125Y017240D01*
X006082Y017158D01*
X006037Y017078D01*
X005987Y017000D01*
X005935Y016924D01*
X005879Y016851D01*
X005820Y016780D01*
X005758Y016712D01*
X005694Y016646D01*
X005626Y016584D01*
X005556Y016524D01*
X005483Y016468D01*
X005408Y016414D01*
X005331Y016364D01*
X005251Y016318D01*
X005170Y016275D01*
X005087Y016235D01*
X005002Y016199D01*
X004916Y016167D01*
X004828Y016138D01*
X004739Y016114D01*
X004650Y016093D01*
X004559Y016076D01*
X004468Y016063D01*
X004376Y016054D01*
X004284Y016049D01*
X004192Y016048D01*
X004100Y016051D01*
X004008Y016058D01*
X003917Y016069D01*
X003826Y016084D01*
X003736Y016103D01*
X003646Y016125D01*
X003558Y016152D01*
X003471Y016182D01*
X003385Y016217D01*
X003301Y016254D01*
X003219Y016296D01*
X003139Y016341D01*
X003060Y016389D01*
X002984Y016441D01*
X002910Y016496D01*
X002839Y016554D01*
X002770Y016615D01*
X002704Y016679D01*
X002640Y016746D01*
X002580Y016815D01*
X002523Y016887D01*
X002468Y016962D01*
X002417Y017039D01*
X002370Y017118D01*
X002326Y017199D01*
X002285Y017281D01*
X002249Y017366D01*
X002215Y017452D01*
X002186Y017539D01*
X002160Y017627D01*
X002139Y017717D01*
X002121Y017807D01*
X002107Y017898D01*
X002097Y017990D01*
X002091Y018082D01*
X002089Y018174D01*
X001893Y010654D02*
X001893Y006008D01*
X006538Y006008D01*
X006538Y010654D01*
X001893Y010654D01*
X002324Y008331D02*
X002326Y008418D01*
X002332Y008504D01*
X002342Y008590D01*
X002356Y008676D01*
X002374Y008761D01*
X002395Y008845D01*
X002421Y008928D01*
X002450Y009009D01*
X002483Y009090D01*
X002519Y009168D01*
X002560Y009245D01*
X002603Y009320D01*
X002650Y009393D01*
X002701Y009463D01*
X002754Y009532D01*
X002811Y009597D01*
X002870Y009660D01*
X002933Y009721D01*
X002998Y009778D01*
X003065Y009832D01*
X003135Y009883D01*
X003208Y009931D01*
X003282Y009976D01*
X003358Y010017D01*
X003437Y010054D01*
X003516Y010088D01*
X003598Y010118D01*
X003680Y010145D01*
X003764Y010167D01*
X003849Y010186D01*
X003934Y010201D01*
X004020Y010212D01*
X004107Y010219D01*
X004193Y010222D01*
X004280Y010221D01*
X004367Y010216D01*
X004453Y010207D01*
X004539Y010194D01*
X004624Y010177D01*
X004708Y010157D01*
X004791Y010132D01*
X004873Y010104D01*
X004954Y010072D01*
X005033Y010036D01*
X005110Y009997D01*
X005185Y009954D01*
X005259Y009908D01*
X005330Y009858D01*
X005399Y009806D01*
X005465Y009750D01*
X005529Y009691D01*
X005590Y009629D01*
X005648Y009565D01*
X005703Y009498D01*
X005755Y009428D01*
X005804Y009357D01*
X005849Y009283D01*
X005891Y009207D01*
X005929Y009129D01*
X005964Y009050D01*
X005995Y008969D01*
X006023Y008886D01*
X006046Y008803D01*
X006066Y008719D01*
X006082Y008633D01*
X006094Y008547D01*
X006102Y008461D01*
X006106Y008374D01*
X006106Y008288D01*
X006102Y008201D01*
X006094Y008115D01*
X006082Y008029D01*
X006066Y007943D01*
X006046Y007859D01*
X006023Y007776D01*
X005995Y007693D01*
X005964Y007612D01*
X005929Y007533D01*
X005891Y007455D01*
X005849Y007379D01*
X005804Y007305D01*
X005755Y007234D01*
X005703Y007164D01*
X005648Y007097D01*
X005590Y007033D01*
X005529Y006971D01*
X005465Y006912D01*
X005399Y006856D01*
X005330Y006804D01*
X005259Y006754D01*
X005185Y006708D01*
X005110Y006665D01*
X005033Y006626D01*
X004954Y006590D01*
X004873Y006558D01*
X004791Y006530D01*
X004708Y006505D01*
X004624Y006485D01*
X004539Y006468D01*
X004453Y006455D01*
X004367Y006446D01*
X004280Y006441D01*
X004193Y006440D01*
X004107Y006443D01*
X004020Y006450D01*
X003934Y006461D01*
X003849Y006476D01*
X003764Y006495D01*
X003680Y006517D01*
X003598Y006544D01*
X003516Y006574D01*
X003437Y006608D01*
X003358Y006645D01*
X003282Y006686D01*
X003208Y006731D01*
X003135Y006779D01*
X003065Y006830D01*
X002998Y006884D01*
X002933Y006941D01*
X002870Y007002D01*
X002811Y007065D01*
X002754Y007130D01*
X002701Y007199D01*
X002650Y007269D01*
X002603Y007342D01*
X002560Y007417D01*
X002519Y007494D01*
X002483Y007572D01*
X002450Y007653D01*
X002421Y007734D01*
X002395Y007817D01*
X002374Y007901D01*
X002356Y007986D01*
X002342Y008072D01*
X002332Y008158D01*
X002326Y008244D01*
X002324Y008331D01*
X002089Y008331D02*
X002091Y008423D01*
X002097Y008515D01*
X002107Y008607D01*
X002121Y008698D01*
X002139Y008788D01*
X002160Y008878D01*
X002186Y008966D01*
X002215Y009053D01*
X002249Y009139D01*
X002285Y009224D01*
X002326Y009306D01*
X002370Y009387D01*
X002417Y009466D01*
X002468Y009543D01*
X002523Y009618D01*
X002580Y009690D01*
X002640Y009759D01*
X002704Y009826D01*
X002770Y009890D01*
X002839Y009951D01*
X002910Y010009D01*
X002984Y010064D01*
X003060Y010116D01*
X003139Y010164D01*
X003219Y010209D01*
X003301Y010251D01*
X003385Y010288D01*
X003471Y010323D01*
X003558Y010353D01*
X003646Y010380D01*
X003736Y010402D01*
X003826Y010421D01*
X003917Y010436D01*
X004008Y010447D01*
X004100Y010454D01*
X004192Y010457D01*
X004284Y010456D01*
X004376Y010451D01*
X004468Y010442D01*
X004559Y010429D01*
X004650Y010412D01*
X004739Y010391D01*
X004828Y010367D01*
X004916Y010338D01*
X005002Y010306D01*
X005087Y010270D01*
X005170Y010230D01*
X005251Y010187D01*
X005331Y010141D01*
X005408Y010091D01*
X005483Y010037D01*
X005556Y009981D01*
X005626Y009921D01*
X005694Y009859D01*
X005758Y009793D01*
X005820Y009725D01*
X005879Y009654D01*
X005935Y009581D01*
X005987Y009505D01*
X006037Y009427D01*
X006082Y009347D01*
X006125Y009265D01*
X006163Y009182D01*
X006198Y009096D01*
X006230Y009010D01*
X006257Y008922D01*
X006281Y008833D01*
X006301Y008743D01*
X006317Y008652D01*
X006329Y008561D01*
X006337Y008469D01*
X006341Y008377D01*
X006341Y008285D01*
X006337Y008193D01*
X006329Y008101D01*
X006317Y008010D01*
X006301Y007919D01*
X006281Y007829D01*
X006257Y007740D01*
X006230Y007652D01*
X006198Y007566D01*
X006163Y007480D01*
X006125Y007397D01*
X006082Y007315D01*
X006037Y007235D01*
X005987Y007157D01*
X005935Y007081D01*
X005879Y007008D01*
X005820Y006937D01*
X005758Y006869D01*
X005694Y006803D01*
X005626Y006741D01*
X005556Y006681D01*
X005483Y006625D01*
X005408Y006571D01*
X005331Y006521D01*
X005251Y006475D01*
X005170Y006432D01*
X005087Y006392D01*
X005002Y006356D01*
X004916Y006324D01*
X004828Y006295D01*
X004739Y006271D01*
X004650Y006250D01*
X004559Y006233D01*
X004468Y006220D01*
X004376Y006211D01*
X004284Y006206D01*
X004192Y006205D01*
X004100Y006208D01*
X004008Y006215D01*
X003917Y006226D01*
X003826Y006241D01*
X003736Y006260D01*
X003646Y006282D01*
X003558Y006309D01*
X003471Y006339D01*
X003385Y006374D01*
X003301Y006411D01*
X003219Y006453D01*
X003139Y006498D01*
X003060Y006546D01*
X002984Y006598D01*
X002910Y006653D01*
X002839Y006711D01*
X002770Y006772D01*
X002704Y006836D01*
X002640Y006903D01*
X002580Y006972D01*
X002523Y007044D01*
X002468Y007119D01*
X002417Y007196D01*
X002370Y007275D01*
X002326Y007356D01*
X002285Y007438D01*
X002249Y007523D01*
X002215Y007609D01*
X002186Y007696D01*
X002160Y007784D01*
X002139Y007874D01*
X002121Y007964D01*
X002107Y008055D01*
X002097Y008147D01*
X002091Y008239D01*
X002089Y008331D01*
X008586Y006008D02*
X008586Y010654D01*
X013231Y010654D01*
X013231Y006008D01*
X008586Y006008D01*
X009017Y008331D02*
X009019Y008418D01*
X009025Y008504D01*
X009035Y008590D01*
X009049Y008676D01*
X009067Y008761D01*
X009088Y008845D01*
X009114Y008928D01*
X009143Y009009D01*
X009176Y009090D01*
X009212Y009168D01*
X009253Y009245D01*
X009296Y009320D01*
X009343Y009393D01*
X009394Y009463D01*
X009447Y009532D01*
X009504Y009597D01*
X009563Y009660D01*
X009626Y009721D01*
X009691Y009778D01*
X009758Y009832D01*
X009828Y009883D01*
X009901Y009931D01*
X009975Y009976D01*
X010051Y010017D01*
X010130Y010054D01*
X010209Y010088D01*
X010291Y010118D01*
X010373Y010145D01*
X010457Y010167D01*
X010542Y010186D01*
X010627Y010201D01*
X010713Y010212D01*
X010800Y010219D01*
X010886Y010222D01*
X010973Y010221D01*
X011060Y010216D01*
X011146Y010207D01*
X011232Y010194D01*
X011317Y010177D01*
X011401Y010157D01*
X011484Y010132D01*
X011566Y010104D01*
X011647Y010072D01*
X011726Y010036D01*
X011803Y009997D01*
X011878Y009954D01*
X011952Y009908D01*
X012023Y009858D01*
X012092Y009806D01*
X012158Y009750D01*
X012222Y009691D01*
X012283Y009629D01*
X012341Y009565D01*
X012396Y009498D01*
X012448Y009428D01*
X012497Y009357D01*
X012542Y009283D01*
X012584Y009207D01*
X012622Y009129D01*
X012657Y009050D01*
X012688Y008969D01*
X012716Y008886D01*
X012739Y008803D01*
X012759Y008719D01*
X012775Y008633D01*
X012787Y008547D01*
X012795Y008461D01*
X012799Y008374D01*
X012799Y008288D01*
X012795Y008201D01*
X012787Y008115D01*
X012775Y008029D01*
X012759Y007943D01*
X012739Y007859D01*
X012716Y007776D01*
X012688Y007693D01*
X012657Y007612D01*
X012622Y007533D01*
X012584Y007455D01*
X012542Y007379D01*
X012497Y007305D01*
X012448Y007234D01*
X012396Y007164D01*
X012341Y007097D01*
X012283Y007033D01*
X012222Y006971D01*
X012158Y006912D01*
X012092Y006856D01*
X012023Y006804D01*
X011952Y006754D01*
X011878Y006708D01*
X011803Y006665D01*
X011726Y006626D01*
X011647Y006590D01*
X011566Y006558D01*
X011484Y006530D01*
X011401Y006505D01*
X011317Y006485D01*
X011232Y006468D01*
X011146Y006455D01*
X011060Y006446D01*
X010973Y006441D01*
X010886Y006440D01*
X010800Y006443D01*
X010713Y006450D01*
X010627Y006461D01*
X010542Y006476D01*
X010457Y006495D01*
X010373Y006517D01*
X010291Y006544D01*
X010209Y006574D01*
X010130Y006608D01*
X010051Y006645D01*
X009975Y006686D01*
X009901Y006731D01*
X009828Y006779D01*
X009758Y006830D01*
X009691Y006884D01*
X009626Y006941D01*
X009563Y007002D01*
X009504Y007065D01*
X009447Y007130D01*
X009394Y007199D01*
X009343Y007269D01*
X009296Y007342D01*
X009253Y007417D01*
X009212Y007494D01*
X009176Y007572D01*
X009143Y007653D01*
X009114Y007734D01*
X009088Y007817D01*
X009067Y007901D01*
X009049Y007986D01*
X009035Y008072D01*
X009025Y008158D01*
X009019Y008244D01*
X009017Y008331D01*
X008782Y008331D02*
X008784Y008423D01*
X008790Y008515D01*
X008800Y008607D01*
X008814Y008698D01*
X008832Y008788D01*
X008853Y008878D01*
X008879Y008966D01*
X008908Y009053D01*
X008942Y009139D01*
X008978Y009224D01*
X009019Y009306D01*
X009063Y009387D01*
X009110Y009466D01*
X009161Y009543D01*
X009216Y009618D01*
X009273Y009690D01*
X009333Y009759D01*
X009397Y009826D01*
X009463Y009890D01*
X009532Y009951D01*
X009603Y010009D01*
X009677Y010064D01*
X009753Y010116D01*
X009832Y010164D01*
X009912Y010209D01*
X009994Y010251D01*
X010078Y010288D01*
X010164Y010323D01*
X010251Y010353D01*
X010339Y010380D01*
X010429Y010402D01*
X010519Y010421D01*
X010610Y010436D01*
X010701Y010447D01*
X010793Y010454D01*
X010885Y010457D01*
X010977Y010456D01*
X011069Y010451D01*
X011161Y010442D01*
X011252Y010429D01*
X011343Y010412D01*
X011432Y010391D01*
X011521Y010367D01*
X011609Y010338D01*
X011695Y010306D01*
X011780Y010270D01*
X011863Y010230D01*
X011944Y010187D01*
X012024Y010141D01*
X012101Y010091D01*
X012176Y010037D01*
X012249Y009981D01*
X012319Y009921D01*
X012387Y009859D01*
X012451Y009793D01*
X012513Y009725D01*
X012572Y009654D01*
X012628Y009581D01*
X012680Y009505D01*
X012730Y009427D01*
X012775Y009347D01*
X012818Y009265D01*
X012856Y009182D01*
X012891Y009096D01*
X012923Y009010D01*
X012950Y008922D01*
X012974Y008833D01*
X012994Y008743D01*
X013010Y008652D01*
X013022Y008561D01*
X013030Y008469D01*
X013034Y008377D01*
X013034Y008285D01*
X013030Y008193D01*
X013022Y008101D01*
X013010Y008010D01*
X012994Y007919D01*
X012974Y007829D01*
X012950Y007740D01*
X012923Y007652D01*
X012891Y007566D01*
X012856Y007480D01*
X012818Y007397D01*
X012775Y007315D01*
X012730Y007235D01*
X012680Y007157D01*
X012628Y007081D01*
X012572Y007008D01*
X012513Y006937D01*
X012451Y006869D01*
X012387Y006803D01*
X012319Y006741D01*
X012249Y006681D01*
X012176Y006625D01*
X012101Y006571D01*
X012024Y006521D01*
X011944Y006475D01*
X011863Y006432D01*
X011780Y006392D01*
X011695Y006356D01*
X011609Y006324D01*
X011521Y006295D01*
X011432Y006271D01*
X011343Y006250D01*
X011252Y006233D01*
X011161Y006220D01*
X011069Y006211D01*
X010977Y006206D01*
X010885Y006205D01*
X010793Y006208D01*
X010701Y006215D01*
X010610Y006226D01*
X010519Y006241D01*
X010429Y006260D01*
X010339Y006282D01*
X010251Y006309D01*
X010164Y006339D01*
X010078Y006374D01*
X009994Y006411D01*
X009912Y006453D01*
X009832Y006498D01*
X009753Y006546D01*
X009677Y006598D01*
X009603Y006653D01*
X009532Y006711D01*
X009463Y006772D01*
X009397Y006836D01*
X009333Y006903D01*
X009273Y006972D01*
X009216Y007044D01*
X009161Y007119D01*
X009110Y007196D01*
X009063Y007275D01*
X009019Y007356D01*
X008978Y007438D01*
X008942Y007523D01*
X008908Y007609D01*
X008879Y007696D01*
X008853Y007784D01*
X008832Y007874D01*
X008814Y007964D01*
X008800Y008055D01*
X008790Y008147D01*
X008784Y008239D01*
X008782Y008331D01*
X015278Y006008D02*
X015278Y010654D01*
X019924Y010654D01*
X019924Y006008D01*
X015278Y006008D01*
X015710Y008331D02*
X015712Y008418D01*
X015718Y008504D01*
X015728Y008590D01*
X015742Y008676D01*
X015760Y008761D01*
X015781Y008845D01*
X015807Y008928D01*
X015836Y009009D01*
X015869Y009090D01*
X015905Y009168D01*
X015946Y009245D01*
X015989Y009320D01*
X016036Y009393D01*
X016087Y009463D01*
X016140Y009532D01*
X016197Y009597D01*
X016256Y009660D01*
X016319Y009721D01*
X016384Y009778D01*
X016451Y009832D01*
X016521Y009883D01*
X016594Y009931D01*
X016668Y009976D01*
X016744Y010017D01*
X016823Y010054D01*
X016902Y010088D01*
X016984Y010118D01*
X017066Y010145D01*
X017150Y010167D01*
X017235Y010186D01*
X017320Y010201D01*
X017406Y010212D01*
X017493Y010219D01*
X017579Y010222D01*
X017666Y010221D01*
X017753Y010216D01*
X017839Y010207D01*
X017925Y010194D01*
X018010Y010177D01*
X018094Y010157D01*
X018177Y010132D01*
X018259Y010104D01*
X018340Y010072D01*
X018419Y010036D01*
X018496Y009997D01*
X018571Y009954D01*
X018645Y009908D01*
X018716Y009858D01*
X018785Y009806D01*
X018851Y009750D01*
X018915Y009691D01*
X018976Y009629D01*
X019034Y009565D01*
X019089Y009498D01*
X019141Y009428D01*
X019190Y009357D01*
X019235Y009283D01*
X019277Y009207D01*
X019315Y009129D01*
X019350Y009050D01*
X019381Y008969D01*
X019409Y008886D01*
X019432Y008803D01*
X019452Y008719D01*
X019468Y008633D01*
X019480Y008547D01*
X019488Y008461D01*
X019492Y008374D01*
X019492Y008288D01*
X019488Y008201D01*
X019480Y008115D01*
X019468Y008029D01*
X019452Y007943D01*
X019432Y007859D01*
X019409Y007776D01*
X019381Y007693D01*
X019350Y007612D01*
X019315Y007533D01*
X019277Y007455D01*
X019235Y007379D01*
X019190Y007305D01*
X019141Y007234D01*
X019089Y007164D01*
X019034Y007097D01*
X018976Y007033D01*
X018915Y006971D01*
X018851Y006912D01*
X018785Y006856D01*
X018716Y006804D01*
X018645Y006754D01*
X018571Y006708D01*
X018496Y006665D01*
X018419Y006626D01*
X018340Y006590D01*
X018259Y006558D01*
X018177Y006530D01*
X018094Y006505D01*
X018010Y006485D01*
X017925Y006468D01*
X017839Y006455D01*
X017753Y006446D01*
X017666Y006441D01*
X017579Y006440D01*
X017493Y006443D01*
X017406Y006450D01*
X017320Y006461D01*
X017235Y006476D01*
X017150Y006495D01*
X017066Y006517D01*
X016984Y006544D01*
X016902Y006574D01*
X016823Y006608D01*
X016744Y006645D01*
X016668Y006686D01*
X016594Y006731D01*
X016521Y006779D01*
X016451Y006830D01*
X016384Y006884D01*
X016319Y006941D01*
X016256Y007002D01*
X016197Y007065D01*
X016140Y007130D01*
X016087Y007199D01*
X016036Y007269D01*
X015989Y007342D01*
X015946Y007417D01*
X015905Y007494D01*
X015869Y007572D01*
X015836Y007653D01*
X015807Y007734D01*
X015781Y007817D01*
X015760Y007901D01*
X015742Y007986D01*
X015728Y008072D01*
X015718Y008158D01*
X015712Y008244D01*
X015710Y008331D01*
X015475Y008331D02*
X015477Y008423D01*
X015483Y008515D01*
X015493Y008607D01*
X015507Y008698D01*
X015525Y008788D01*
X015546Y008878D01*
X015572Y008966D01*
X015601Y009053D01*
X015635Y009139D01*
X015671Y009224D01*
X015712Y009306D01*
X015756Y009387D01*
X015803Y009466D01*
X015854Y009543D01*
X015909Y009618D01*
X015966Y009690D01*
X016026Y009759D01*
X016090Y009826D01*
X016156Y009890D01*
X016225Y009951D01*
X016296Y010009D01*
X016370Y010064D01*
X016446Y010116D01*
X016525Y010164D01*
X016605Y010209D01*
X016687Y010251D01*
X016771Y010288D01*
X016857Y010323D01*
X016944Y010353D01*
X017032Y010380D01*
X017122Y010402D01*
X017212Y010421D01*
X017303Y010436D01*
X017394Y010447D01*
X017486Y010454D01*
X017578Y010457D01*
X017670Y010456D01*
X017762Y010451D01*
X017854Y010442D01*
X017945Y010429D01*
X018036Y010412D01*
X018125Y010391D01*
X018214Y010367D01*
X018302Y010338D01*
X018388Y010306D01*
X018473Y010270D01*
X018556Y010230D01*
X018637Y010187D01*
X018717Y010141D01*
X018794Y010091D01*
X018869Y010037D01*
X018942Y009981D01*
X019012Y009921D01*
X019080Y009859D01*
X019144Y009793D01*
X019206Y009725D01*
X019265Y009654D01*
X019321Y009581D01*
X019373Y009505D01*
X019423Y009427D01*
X019468Y009347D01*
X019511Y009265D01*
X019549Y009182D01*
X019584Y009096D01*
X019616Y009010D01*
X019643Y008922D01*
X019667Y008833D01*
X019687Y008743D01*
X019703Y008652D01*
X019715Y008561D01*
X019723Y008469D01*
X019727Y008377D01*
X019727Y008285D01*
X019723Y008193D01*
X019715Y008101D01*
X019703Y008010D01*
X019687Y007919D01*
X019667Y007829D01*
X019643Y007740D01*
X019616Y007652D01*
X019584Y007566D01*
X019549Y007480D01*
X019511Y007397D01*
X019468Y007315D01*
X019423Y007235D01*
X019373Y007157D01*
X019321Y007081D01*
X019265Y007008D01*
X019206Y006937D01*
X019144Y006869D01*
X019080Y006803D01*
X019012Y006741D01*
X018942Y006681D01*
X018869Y006625D01*
X018794Y006571D01*
X018717Y006521D01*
X018637Y006475D01*
X018556Y006432D01*
X018473Y006392D01*
X018388Y006356D01*
X018302Y006324D01*
X018214Y006295D01*
X018125Y006271D01*
X018036Y006250D01*
X017945Y006233D01*
X017854Y006220D01*
X017762Y006211D01*
X017670Y006206D01*
X017578Y006205D01*
X017486Y006208D01*
X017394Y006215D01*
X017303Y006226D01*
X017212Y006241D01*
X017122Y006260D01*
X017032Y006282D01*
X016944Y006309D01*
X016857Y006339D01*
X016771Y006374D01*
X016687Y006411D01*
X016605Y006453D01*
X016525Y006498D01*
X016446Y006546D01*
X016370Y006598D01*
X016296Y006653D01*
X016225Y006711D01*
X016156Y006772D01*
X016090Y006836D01*
X016026Y006903D01*
X015966Y006972D01*
X015909Y007044D01*
X015854Y007119D01*
X015803Y007196D01*
X015756Y007275D01*
X015712Y007356D01*
X015671Y007438D01*
X015635Y007523D01*
X015601Y007609D01*
X015572Y007696D01*
X015546Y007784D01*
X015525Y007874D01*
X015507Y007964D01*
X015493Y008055D01*
X015483Y008147D01*
X015477Y008239D01*
X015475Y008331D01*
X021971Y006008D02*
X021971Y010654D01*
X026617Y010654D01*
X026617Y006008D01*
X021971Y006008D01*
X022403Y008331D02*
X022405Y008418D01*
X022411Y008504D01*
X022421Y008590D01*
X022435Y008676D01*
X022453Y008761D01*
X022474Y008845D01*
X022500Y008928D01*
X022529Y009009D01*
X022562Y009090D01*
X022598Y009168D01*
X022639Y009245D01*
X022682Y009320D01*
X022729Y009393D01*
X022780Y009463D01*
X022833Y009532D01*
X022890Y009597D01*
X022949Y009660D01*
X023012Y009721D01*
X023077Y009778D01*
X023144Y009832D01*
X023214Y009883D01*
X023287Y009931D01*
X023361Y009976D01*
X023437Y010017D01*
X023516Y010054D01*
X023595Y010088D01*
X023677Y010118D01*
X023759Y010145D01*
X023843Y010167D01*
X023928Y010186D01*
X024013Y010201D01*
X024099Y010212D01*
X024186Y010219D01*
X024272Y010222D01*
X024359Y010221D01*
X024446Y010216D01*
X024532Y010207D01*
X024618Y010194D01*
X024703Y010177D01*
X024787Y010157D01*
X024870Y010132D01*
X024952Y010104D01*
X025033Y010072D01*
X025112Y010036D01*
X025189Y009997D01*
X025264Y009954D01*
X025338Y009908D01*
X025409Y009858D01*
X025478Y009806D01*
X025544Y009750D01*
X025608Y009691D01*
X025669Y009629D01*
X025727Y009565D01*
X025782Y009498D01*
X025834Y009428D01*
X025883Y009357D01*
X025928Y009283D01*
X025970Y009207D01*
X026008Y009129D01*
X026043Y009050D01*
X026074Y008969D01*
X026102Y008886D01*
X026125Y008803D01*
X026145Y008719D01*
X026161Y008633D01*
X026173Y008547D01*
X026181Y008461D01*
X026185Y008374D01*
X026185Y008288D01*
X026181Y008201D01*
X026173Y008115D01*
X026161Y008029D01*
X026145Y007943D01*
X026125Y007859D01*
X026102Y007776D01*
X026074Y007693D01*
X026043Y007612D01*
X026008Y007533D01*
X025970Y007455D01*
X025928Y007379D01*
X025883Y007305D01*
X025834Y007234D01*
X025782Y007164D01*
X025727Y007097D01*
X025669Y007033D01*
X025608Y006971D01*
X025544Y006912D01*
X025478Y006856D01*
X025409Y006804D01*
X025338Y006754D01*
X025264Y006708D01*
X025189Y006665D01*
X025112Y006626D01*
X025033Y006590D01*
X024952Y006558D01*
X024870Y006530D01*
X024787Y006505D01*
X024703Y006485D01*
X024618Y006468D01*
X024532Y006455D01*
X024446Y006446D01*
X024359Y006441D01*
X024272Y006440D01*
X024186Y006443D01*
X024099Y006450D01*
X024013Y006461D01*
X023928Y006476D01*
X023843Y006495D01*
X023759Y006517D01*
X023677Y006544D01*
X023595Y006574D01*
X023516Y006608D01*
X023437Y006645D01*
X023361Y006686D01*
X023287Y006731D01*
X023214Y006779D01*
X023144Y006830D01*
X023077Y006884D01*
X023012Y006941D01*
X022949Y007002D01*
X022890Y007065D01*
X022833Y007130D01*
X022780Y007199D01*
X022729Y007269D01*
X022682Y007342D01*
X022639Y007417D01*
X022598Y007494D01*
X022562Y007572D01*
X022529Y007653D01*
X022500Y007734D01*
X022474Y007817D01*
X022453Y007901D01*
X022435Y007986D01*
X022421Y008072D01*
X022411Y008158D01*
X022405Y008244D01*
X022403Y008331D01*
X022168Y008331D02*
X022170Y008423D01*
X022176Y008515D01*
X022186Y008607D01*
X022200Y008698D01*
X022218Y008788D01*
X022239Y008878D01*
X022265Y008966D01*
X022294Y009053D01*
X022328Y009139D01*
X022364Y009224D01*
X022405Y009306D01*
X022449Y009387D01*
X022496Y009466D01*
X022547Y009543D01*
X022602Y009618D01*
X022659Y009690D01*
X022719Y009759D01*
X022783Y009826D01*
X022849Y009890D01*
X022918Y009951D01*
X022989Y010009D01*
X023063Y010064D01*
X023139Y010116D01*
X023218Y010164D01*
X023298Y010209D01*
X023380Y010251D01*
X023464Y010288D01*
X023550Y010323D01*
X023637Y010353D01*
X023725Y010380D01*
X023815Y010402D01*
X023905Y010421D01*
X023996Y010436D01*
X024087Y010447D01*
X024179Y010454D01*
X024271Y010457D01*
X024363Y010456D01*
X024455Y010451D01*
X024547Y010442D01*
X024638Y010429D01*
X024729Y010412D01*
X024818Y010391D01*
X024907Y010367D01*
X024995Y010338D01*
X025081Y010306D01*
X025166Y010270D01*
X025249Y010230D01*
X025330Y010187D01*
X025410Y010141D01*
X025487Y010091D01*
X025562Y010037D01*
X025635Y009981D01*
X025705Y009921D01*
X025773Y009859D01*
X025837Y009793D01*
X025899Y009725D01*
X025958Y009654D01*
X026014Y009581D01*
X026066Y009505D01*
X026116Y009427D01*
X026161Y009347D01*
X026204Y009265D01*
X026242Y009182D01*
X026277Y009096D01*
X026309Y009010D01*
X026336Y008922D01*
X026360Y008833D01*
X026380Y008743D01*
X026396Y008652D01*
X026408Y008561D01*
X026416Y008469D01*
X026420Y008377D01*
X026420Y008285D01*
X026416Y008193D01*
X026408Y008101D01*
X026396Y008010D01*
X026380Y007919D01*
X026360Y007829D01*
X026336Y007740D01*
X026309Y007652D01*
X026277Y007566D01*
X026242Y007480D01*
X026204Y007397D01*
X026161Y007315D01*
X026116Y007235D01*
X026066Y007157D01*
X026014Y007081D01*
X025958Y007008D01*
X025899Y006937D01*
X025837Y006869D01*
X025773Y006803D01*
X025705Y006741D01*
X025635Y006681D01*
X025562Y006625D01*
X025487Y006571D01*
X025410Y006521D01*
X025330Y006475D01*
X025249Y006432D01*
X025166Y006392D01*
X025081Y006356D01*
X024995Y006324D01*
X024907Y006295D01*
X024818Y006271D01*
X024729Y006250D01*
X024638Y006233D01*
X024547Y006220D01*
X024455Y006211D01*
X024363Y006206D01*
X024271Y006205D01*
X024179Y006208D01*
X024087Y006215D01*
X023996Y006226D01*
X023905Y006241D01*
X023815Y006260D01*
X023725Y006282D01*
X023637Y006309D01*
X023550Y006339D01*
X023464Y006374D01*
X023380Y006411D01*
X023298Y006453D01*
X023218Y006498D01*
X023139Y006546D01*
X023063Y006598D01*
X022989Y006653D01*
X022918Y006711D01*
X022849Y006772D01*
X022783Y006836D01*
X022719Y006903D01*
X022659Y006972D01*
X022602Y007044D01*
X022547Y007119D01*
X022496Y007196D01*
X022449Y007275D01*
X022405Y007356D01*
X022364Y007438D01*
X022328Y007523D01*
X022294Y007609D01*
X022265Y007696D01*
X022239Y007784D01*
X022218Y007874D01*
X022200Y007964D01*
X022186Y008055D01*
X022176Y008147D01*
X022170Y008239D01*
X022168Y008331D01*
D13*
X023625Y010221D02*
X023706Y010248D01*
X023788Y010271D01*
X023871Y010291D01*
X023954Y010307D01*
X024039Y010320D01*
X024124Y010329D01*
X024209Y010334D01*
X024294Y010336D01*
X024379Y010334D01*
X024464Y010329D01*
X024549Y010320D01*
X024634Y010307D01*
X024717Y010291D01*
X024800Y010271D01*
X024882Y010248D01*
X024963Y010221D01*
X018270Y010221D02*
X018189Y010248D01*
X018107Y010271D01*
X018024Y010291D01*
X017941Y010307D01*
X017856Y010320D01*
X017771Y010329D01*
X017686Y010334D01*
X017601Y010336D01*
X017516Y010334D01*
X017431Y010329D01*
X017346Y010320D01*
X017261Y010307D01*
X017178Y010291D01*
X017095Y010271D01*
X017013Y010248D01*
X016932Y010221D01*
X011577Y010221D02*
X011496Y010248D01*
X011414Y010271D01*
X011331Y010291D01*
X011248Y010307D01*
X011163Y010320D01*
X011078Y010329D01*
X010993Y010334D01*
X010908Y010336D01*
X010823Y010334D01*
X010738Y010329D01*
X010653Y010320D01*
X010568Y010307D01*
X010485Y010291D01*
X010402Y010271D01*
X010320Y010248D01*
X010239Y010221D01*
X004884Y010221D02*
X004803Y010248D01*
X004721Y010271D01*
X004638Y010291D01*
X004555Y010307D01*
X004470Y010320D01*
X004385Y010329D01*
X004300Y010334D01*
X004215Y010336D01*
X004130Y010334D01*
X004045Y010329D01*
X003960Y010320D01*
X003875Y010307D01*
X003792Y010291D01*
X003709Y010271D01*
X003627Y010248D01*
X003546Y010221D01*
X003546Y020064D02*
X003627Y020091D01*
X003709Y020114D01*
X003792Y020134D01*
X003875Y020150D01*
X003960Y020163D01*
X004045Y020172D01*
X004130Y020177D01*
X004215Y020179D01*
X004300Y020177D01*
X004385Y020172D01*
X004470Y020163D01*
X004555Y020150D01*
X004638Y020134D01*
X004721Y020114D01*
X004803Y020091D01*
X004884Y020064D01*
X010239Y020064D02*
X010320Y020091D01*
X010402Y020114D01*
X010485Y020134D01*
X010568Y020150D01*
X010653Y020163D01*
X010738Y020172D01*
X010823Y020177D01*
X010908Y020179D01*
X010993Y020177D01*
X011078Y020172D01*
X011163Y020163D01*
X011248Y020150D01*
X011331Y020134D01*
X011414Y020114D01*
X011496Y020091D01*
X011577Y020064D01*
X016932Y020064D02*
X017013Y020091D01*
X017095Y020114D01*
X017178Y020134D01*
X017261Y020150D01*
X017346Y020163D01*
X017431Y020172D01*
X017516Y020177D01*
X017601Y020179D01*
X017686Y020177D01*
X017771Y020172D01*
X017856Y020163D01*
X017941Y020150D01*
X018024Y020134D01*
X018107Y020114D01*
X018189Y020091D01*
X018270Y020064D01*
D14*
X016139Y021077D02*
X015832Y020770D01*
X015832Y020694D01*
X015678Y020694D02*
X015371Y021154D01*
X015678Y021154D02*
X015371Y020694D01*
X015832Y021154D02*
X016139Y021154D01*
X016139Y021077D01*
X009446Y021154D02*
X009292Y021077D01*
X009139Y020924D01*
X009369Y020924D01*
X009446Y020847D01*
X009446Y020770D01*
X009369Y020694D01*
X009215Y020694D01*
X009139Y020770D01*
X009139Y020924D01*
X008985Y021154D02*
X008678Y020694D01*
X008985Y020694D02*
X008678Y021154D01*
X002753Y021154D02*
X002446Y021154D01*
X002446Y020924D01*
X002599Y021000D01*
X002676Y021000D01*
X002753Y020924D01*
X002753Y020770D01*
X002676Y020694D01*
X002523Y020694D01*
X002446Y020770D01*
X002292Y020694D02*
X001985Y021154D01*
X002292Y021154D02*
X001985Y020694D01*
X001985Y011311D02*
X002292Y010851D01*
X002446Y010928D02*
X002523Y010851D01*
X002676Y010851D01*
X002753Y010928D01*
X002753Y011004D01*
X002676Y011081D01*
X002599Y011081D01*
X002676Y011081D02*
X002753Y011158D01*
X002753Y011235D01*
X002676Y011311D01*
X002523Y011311D01*
X002446Y011235D01*
X002292Y011311D02*
X001985Y010851D01*
X008678Y010851D02*
X008985Y011311D01*
X009139Y011158D02*
X009292Y011311D01*
X009292Y010851D01*
X009139Y010851D02*
X009446Y010851D01*
X008985Y010851D02*
X008678Y011311D01*
X015371Y011311D02*
X015678Y010851D01*
X015832Y010851D02*
X016139Y011158D01*
X016139Y011235D01*
X016062Y011311D01*
X015908Y011311D01*
X015832Y011235D01*
X015678Y011311D02*
X015371Y010851D01*
X015832Y010851D02*
X016139Y010851D01*
X022064Y010851D02*
X022371Y011311D01*
X022525Y011081D02*
X022831Y011081D01*
X022755Y010851D02*
X022755Y011311D01*
X022525Y011081D01*
X022371Y010851D02*
X022064Y011311D01*
D15*
X022459Y009831D02*
X022461Y009867D01*
X022467Y009903D01*
X022477Y009938D01*
X022490Y009972D01*
X022507Y010004D01*
X022527Y010034D01*
X022551Y010061D01*
X022577Y010086D01*
X022606Y010108D01*
X022637Y010127D01*
X022670Y010142D01*
X022704Y010154D01*
X022740Y010162D01*
X022776Y010166D01*
X022812Y010166D01*
X022848Y010162D01*
X022884Y010154D01*
X022918Y010142D01*
X022951Y010127D01*
X022982Y010108D01*
X023011Y010086D01*
X023037Y010061D01*
X023061Y010034D01*
X023081Y010004D01*
X023098Y009972D01*
X023111Y009938D01*
X023121Y009903D01*
X023127Y009867D01*
X023129Y009831D01*
X023127Y009795D01*
X023121Y009759D01*
X023111Y009724D01*
X023098Y009690D01*
X023081Y009658D01*
X023061Y009628D01*
X023037Y009601D01*
X023011Y009576D01*
X022982Y009554D01*
X022951Y009535D01*
X022918Y009520D01*
X022884Y009508D01*
X022848Y009500D01*
X022812Y009496D01*
X022776Y009496D01*
X022740Y009500D01*
X022704Y009508D01*
X022670Y009520D01*
X022637Y009535D01*
X022606Y009554D01*
X022577Y009576D01*
X022551Y009601D01*
X022527Y009628D01*
X022507Y009658D01*
X022490Y009690D01*
X022477Y009724D01*
X022467Y009759D01*
X022461Y009795D01*
X022459Y009831D01*
X025459Y009831D02*
X025461Y009867D01*
X025467Y009903D01*
X025477Y009938D01*
X025490Y009972D01*
X025507Y010004D01*
X025527Y010034D01*
X025551Y010061D01*
X025577Y010086D01*
X025606Y010108D01*
X025637Y010127D01*
X025670Y010142D01*
X025704Y010154D01*
X025740Y010162D01*
X025776Y010166D01*
X025812Y010166D01*
X025848Y010162D01*
X025884Y010154D01*
X025918Y010142D01*
X025951Y010127D01*
X025982Y010108D01*
X026011Y010086D01*
X026037Y010061D01*
X026061Y010034D01*
X026081Y010004D01*
X026098Y009972D01*
X026111Y009938D01*
X026121Y009903D01*
X026127Y009867D01*
X026129Y009831D01*
X026127Y009795D01*
X026121Y009759D01*
X026111Y009724D01*
X026098Y009690D01*
X026081Y009658D01*
X026061Y009628D01*
X026037Y009601D01*
X026011Y009576D01*
X025982Y009554D01*
X025951Y009535D01*
X025918Y009520D01*
X025884Y009508D01*
X025848Y009500D01*
X025812Y009496D01*
X025776Y009496D01*
X025740Y009500D01*
X025704Y009508D01*
X025670Y009520D01*
X025637Y009535D01*
X025606Y009554D01*
X025577Y009576D01*
X025551Y009601D01*
X025527Y009628D01*
X025507Y009658D01*
X025490Y009690D01*
X025477Y009724D01*
X025467Y009759D01*
X025461Y009795D01*
X025459Y009831D01*
X025459Y006831D02*
X025461Y006867D01*
X025467Y006903D01*
X025477Y006938D01*
X025490Y006972D01*
X025507Y007004D01*
X025527Y007034D01*
X025551Y007061D01*
X025577Y007086D01*
X025606Y007108D01*
X025637Y007127D01*
X025670Y007142D01*
X025704Y007154D01*
X025740Y007162D01*
X025776Y007166D01*
X025812Y007166D01*
X025848Y007162D01*
X025884Y007154D01*
X025918Y007142D01*
X025951Y007127D01*
X025982Y007108D01*
X026011Y007086D01*
X026037Y007061D01*
X026061Y007034D01*
X026081Y007004D01*
X026098Y006972D01*
X026111Y006938D01*
X026121Y006903D01*
X026127Y006867D01*
X026129Y006831D01*
X026127Y006795D01*
X026121Y006759D01*
X026111Y006724D01*
X026098Y006690D01*
X026081Y006658D01*
X026061Y006628D01*
X026037Y006601D01*
X026011Y006576D01*
X025982Y006554D01*
X025951Y006535D01*
X025918Y006520D01*
X025884Y006508D01*
X025848Y006500D01*
X025812Y006496D01*
X025776Y006496D01*
X025740Y006500D01*
X025704Y006508D01*
X025670Y006520D01*
X025637Y006535D01*
X025606Y006554D01*
X025577Y006576D01*
X025551Y006601D01*
X025527Y006628D01*
X025507Y006658D01*
X025490Y006690D01*
X025477Y006724D01*
X025467Y006759D01*
X025461Y006795D01*
X025459Y006831D01*
X022459Y006831D02*
X022461Y006867D01*
X022467Y006903D01*
X022477Y006938D01*
X022490Y006972D01*
X022507Y007004D01*
X022527Y007034D01*
X022551Y007061D01*
X022577Y007086D01*
X022606Y007108D01*
X022637Y007127D01*
X022670Y007142D01*
X022704Y007154D01*
X022740Y007162D01*
X022776Y007166D01*
X022812Y007166D01*
X022848Y007162D01*
X022884Y007154D01*
X022918Y007142D01*
X022951Y007127D01*
X022982Y007108D01*
X023011Y007086D01*
X023037Y007061D01*
X023061Y007034D01*
X023081Y007004D01*
X023098Y006972D01*
X023111Y006938D01*
X023121Y006903D01*
X023127Y006867D01*
X023129Y006831D01*
X023127Y006795D01*
X023121Y006759D01*
X023111Y006724D01*
X023098Y006690D01*
X023081Y006658D01*
X023061Y006628D01*
X023037Y006601D01*
X023011Y006576D01*
X022982Y006554D01*
X022951Y006535D01*
X022918Y006520D01*
X022884Y006508D01*
X022848Y006500D01*
X022812Y006496D01*
X022776Y006496D01*
X022740Y006500D01*
X022704Y006508D01*
X022670Y006520D01*
X022637Y006535D01*
X022606Y006554D01*
X022577Y006576D01*
X022551Y006601D01*
X022527Y006628D01*
X022507Y006658D01*
X022490Y006690D01*
X022477Y006724D01*
X022467Y006759D01*
X022461Y006795D01*
X022459Y006831D01*
X018766Y006831D02*
X018768Y006867D01*
X018774Y006903D01*
X018784Y006938D01*
X018797Y006972D01*
X018814Y007004D01*
X018834Y007034D01*
X018858Y007061D01*
X018884Y007086D01*
X018913Y007108D01*
X018944Y007127D01*
X018977Y007142D01*
X019011Y007154D01*
X019047Y007162D01*
X019083Y007166D01*
X019119Y007166D01*
X019155Y007162D01*
X019191Y007154D01*
X019225Y007142D01*
X019258Y007127D01*
X019289Y007108D01*
X019318Y007086D01*
X019344Y007061D01*
X019368Y007034D01*
X019388Y007004D01*
X019405Y006972D01*
X019418Y006938D01*
X019428Y006903D01*
X019434Y006867D01*
X019436Y006831D01*
X019434Y006795D01*
X019428Y006759D01*
X019418Y006724D01*
X019405Y006690D01*
X019388Y006658D01*
X019368Y006628D01*
X019344Y006601D01*
X019318Y006576D01*
X019289Y006554D01*
X019258Y006535D01*
X019225Y006520D01*
X019191Y006508D01*
X019155Y006500D01*
X019119Y006496D01*
X019083Y006496D01*
X019047Y006500D01*
X019011Y006508D01*
X018977Y006520D01*
X018944Y006535D01*
X018913Y006554D01*
X018884Y006576D01*
X018858Y006601D01*
X018834Y006628D01*
X018814Y006658D01*
X018797Y006690D01*
X018784Y006724D01*
X018774Y006759D01*
X018768Y006795D01*
X018766Y006831D01*
X015766Y006831D02*
X015768Y006867D01*
X015774Y006903D01*
X015784Y006938D01*
X015797Y006972D01*
X015814Y007004D01*
X015834Y007034D01*
X015858Y007061D01*
X015884Y007086D01*
X015913Y007108D01*
X015944Y007127D01*
X015977Y007142D01*
X016011Y007154D01*
X016047Y007162D01*
X016083Y007166D01*
X016119Y007166D01*
X016155Y007162D01*
X016191Y007154D01*
X016225Y007142D01*
X016258Y007127D01*
X016289Y007108D01*
X016318Y007086D01*
X016344Y007061D01*
X016368Y007034D01*
X016388Y007004D01*
X016405Y006972D01*
X016418Y006938D01*
X016428Y006903D01*
X016434Y006867D01*
X016436Y006831D01*
X016434Y006795D01*
X016428Y006759D01*
X016418Y006724D01*
X016405Y006690D01*
X016388Y006658D01*
X016368Y006628D01*
X016344Y006601D01*
X016318Y006576D01*
X016289Y006554D01*
X016258Y006535D01*
X016225Y006520D01*
X016191Y006508D01*
X016155Y006500D01*
X016119Y006496D01*
X016083Y006496D01*
X016047Y006500D01*
X016011Y006508D01*
X015977Y006520D01*
X015944Y006535D01*
X015913Y006554D01*
X015884Y006576D01*
X015858Y006601D01*
X015834Y006628D01*
X015814Y006658D01*
X015797Y006690D01*
X015784Y006724D01*
X015774Y006759D01*
X015768Y006795D01*
X015766Y006831D01*
X015766Y009831D02*
X015768Y009867D01*
X015774Y009903D01*
X015784Y009938D01*
X015797Y009972D01*
X015814Y010004D01*
X015834Y010034D01*
X015858Y010061D01*
X015884Y010086D01*
X015913Y010108D01*
X015944Y010127D01*
X015977Y010142D01*
X016011Y010154D01*
X016047Y010162D01*
X016083Y010166D01*
X016119Y010166D01*
X016155Y010162D01*
X016191Y010154D01*
X016225Y010142D01*
X016258Y010127D01*
X016289Y010108D01*
X016318Y010086D01*
X016344Y010061D01*
X016368Y010034D01*
X016388Y010004D01*
X016405Y009972D01*
X016418Y009938D01*
X016428Y009903D01*
X016434Y009867D01*
X016436Y009831D01*
X016434Y009795D01*
X016428Y009759D01*
X016418Y009724D01*
X016405Y009690D01*
X016388Y009658D01*
X016368Y009628D01*
X016344Y009601D01*
X016318Y009576D01*
X016289Y009554D01*
X016258Y009535D01*
X016225Y009520D01*
X016191Y009508D01*
X016155Y009500D01*
X016119Y009496D01*
X016083Y009496D01*
X016047Y009500D01*
X016011Y009508D01*
X015977Y009520D01*
X015944Y009535D01*
X015913Y009554D01*
X015884Y009576D01*
X015858Y009601D01*
X015834Y009628D01*
X015814Y009658D01*
X015797Y009690D01*
X015784Y009724D01*
X015774Y009759D01*
X015768Y009795D01*
X015766Y009831D01*
X018766Y009831D02*
X018768Y009867D01*
X018774Y009903D01*
X018784Y009938D01*
X018797Y009972D01*
X018814Y010004D01*
X018834Y010034D01*
X018858Y010061D01*
X018884Y010086D01*
X018913Y010108D01*
X018944Y010127D01*
X018977Y010142D01*
X019011Y010154D01*
X019047Y010162D01*
X019083Y010166D01*
X019119Y010166D01*
X019155Y010162D01*
X019191Y010154D01*
X019225Y010142D01*
X019258Y010127D01*
X019289Y010108D01*
X019318Y010086D01*
X019344Y010061D01*
X019368Y010034D01*
X019388Y010004D01*
X019405Y009972D01*
X019418Y009938D01*
X019428Y009903D01*
X019434Y009867D01*
X019436Y009831D01*
X019434Y009795D01*
X019428Y009759D01*
X019418Y009724D01*
X019405Y009690D01*
X019388Y009658D01*
X019368Y009628D01*
X019344Y009601D01*
X019318Y009576D01*
X019289Y009554D01*
X019258Y009535D01*
X019225Y009520D01*
X019191Y009508D01*
X019155Y009500D01*
X019119Y009496D01*
X019083Y009496D01*
X019047Y009500D01*
X019011Y009508D01*
X018977Y009520D01*
X018944Y009535D01*
X018913Y009554D01*
X018884Y009576D01*
X018858Y009601D01*
X018834Y009628D01*
X018814Y009658D01*
X018797Y009690D01*
X018784Y009724D01*
X018774Y009759D01*
X018768Y009795D01*
X018766Y009831D01*
X012073Y009831D02*
X012075Y009867D01*
X012081Y009903D01*
X012091Y009938D01*
X012104Y009972D01*
X012121Y010004D01*
X012141Y010034D01*
X012165Y010061D01*
X012191Y010086D01*
X012220Y010108D01*
X012251Y010127D01*
X012284Y010142D01*
X012318Y010154D01*
X012354Y010162D01*
X012390Y010166D01*
X012426Y010166D01*
X012462Y010162D01*
X012498Y010154D01*
X012532Y010142D01*
X012565Y010127D01*
X012596Y010108D01*
X012625Y010086D01*
X012651Y010061D01*
X012675Y010034D01*
X012695Y010004D01*
X012712Y009972D01*
X012725Y009938D01*
X012735Y009903D01*
X012741Y009867D01*
X012743Y009831D01*
X012741Y009795D01*
X012735Y009759D01*
X012725Y009724D01*
X012712Y009690D01*
X012695Y009658D01*
X012675Y009628D01*
X012651Y009601D01*
X012625Y009576D01*
X012596Y009554D01*
X012565Y009535D01*
X012532Y009520D01*
X012498Y009508D01*
X012462Y009500D01*
X012426Y009496D01*
X012390Y009496D01*
X012354Y009500D01*
X012318Y009508D01*
X012284Y009520D01*
X012251Y009535D01*
X012220Y009554D01*
X012191Y009576D01*
X012165Y009601D01*
X012141Y009628D01*
X012121Y009658D01*
X012104Y009690D01*
X012091Y009724D01*
X012081Y009759D01*
X012075Y009795D01*
X012073Y009831D01*
X009073Y009831D02*
X009075Y009867D01*
X009081Y009903D01*
X009091Y009938D01*
X009104Y009972D01*
X009121Y010004D01*
X009141Y010034D01*
X009165Y010061D01*
X009191Y010086D01*
X009220Y010108D01*
X009251Y010127D01*
X009284Y010142D01*
X009318Y010154D01*
X009354Y010162D01*
X009390Y010166D01*
X009426Y010166D01*
X009462Y010162D01*
X009498Y010154D01*
X009532Y010142D01*
X009565Y010127D01*
X009596Y010108D01*
X009625Y010086D01*
X009651Y010061D01*
X009675Y010034D01*
X009695Y010004D01*
X009712Y009972D01*
X009725Y009938D01*
X009735Y009903D01*
X009741Y009867D01*
X009743Y009831D01*
X009741Y009795D01*
X009735Y009759D01*
X009725Y009724D01*
X009712Y009690D01*
X009695Y009658D01*
X009675Y009628D01*
X009651Y009601D01*
X009625Y009576D01*
X009596Y009554D01*
X009565Y009535D01*
X009532Y009520D01*
X009498Y009508D01*
X009462Y009500D01*
X009426Y009496D01*
X009390Y009496D01*
X009354Y009500D01*
X009318Y009508D01*
X009284Y009520D01*
X009251Y009535D01*
X009220Y009554D01*
X009191Y009576D01*
X009165Y009601D01*
X009141Y009628D01*
X009121Y009658D01*
X009104Y009690D01*
X009091Y009724D01*
X009081Y009759D01*
X009075Y009795D01*
X009073Y009831D01*
X005380Y009831D02*
X005382Y009867D01*
X005388Y009903D01*
X005398Y009938D01*
X005411Y009972D01*
X005428Y010004D01*
X005448Y010034D01*
X005472Y010061D01*
X005498Y010086D01*
X005527Y010108D01*
X005558Y010127D01*
X005591Y010142D01*
X005625Y010154D01*
X005661Y010162D01*
X005697Y010166D01*
X005733Y010166D01*
X005769Y010162D01*
X005805Y010154D01*
X005839Y010142D01*
X005872Y010127D01*
X005903Y010108D01*
X005932Y010086D01*
X005958Y010061D01*
X005982Y010034D01*
X006002Y010004D01*
X006019Y009972D01*
X006032Y009938D01*
X006042Y009903D01*
X006048Y009867D01*
X006050Y009831D01*
X006048Y009795D01*
X006042Y009759D01*
X006032Y009724D01*
X006019Y009690D01*
X006002Y009658D01*
X005982Y009628D01*
X005958Y009601D01*
X005932Y009576D01*
X005903Y009554D01*
X005872Y009535D01*
X005839Y009520D01*
X005805Y009508D01*
X005769Y009500D01*
X005733Y009496D01*
X005697Y009496D01*
X005661Y009500D01*
X005625Y009508D01*
X005591Y009520D01*
X005558Y009535D01*
X005527Y009554D01*
X005498Y009576D01*
X005472Y009601D01*
X005448Y009628D01*
X005428Y009658D01*
X005411Y009690D01*
X005398Y009724D01*
X005388Y009759D01*
X005382Y009795D01*
X005380Y009831D01*
X002380Y009831D02*
X002382Y009867D01*
X002388Y009903D01*
X002398Y009938D01*
X002411Y009972D01*
X002428Y010004D01*
X002448Y010034D01*
X002472Y010061D01*
X002498Y010086D01*
X002527Y010108D01*
X002558Y010127D01*
X002591Y010142D01*
X002625Y010154D01*
X002661Y010162D01*
X002697Y010166D01*
X002733Y010166D01*
X002769Y010162D01*
X002805Y010154D01*
X002839Y010142D01*
X002872Y010127D01*
X002903Y010108D01*
X002932Y010086D01*
X002958Y010061D01*
X002982Y010034D01*
X003002Y010004D01*
X003019Y009972D01*
X003032Y009938D01*
X003042Y009903D01*
X003048Y009867D01*
X003050Y009831D01*
X003048Y009795D01*
X003042Y009759D01*
X003032Y009724D01*
X003019Y009690D01*
X003002Y009658D01*
X002982Y009628D01*
X002958Y009601D01*
X002932Y009576D01*
X002903Y009554D01*
X002872Y009535D01*
X002839Y009520D01*
X002805Y009508D01*
X002769Y009500D01*
X002733Y009496D01*
X002697Y009496D01*
X002661Y009500D01*
X002625Y009508D01*
X002591Y009520D01*
X002558Y009535D01*
X002527Y009554D01*
X002498Y009576D01*
X002472Y009601D01*
X002448Y009628D01*
X002428Y009658D01*
X002411Y009690D01*
X002398Y009724D01*
X002388Y009759D01*
X002382Y009795D01*
X002380Y009831D01*
X002380Y006831D02*
X002382Y006867D01*
X002388Y006903D01*
X002398Y006938D01*
X002411Y006972D01*
X002428Y007004D01*
X002448Y007034D01*
X002472Y007061D01*
X002498Y007086D01*
X002527Y007108D01*
X002558Y007127D01*
X002591Y007142D01*
X002625Y007154D01*
X002661Y007162D01*
X002697Y007166D01*
X002733Y007166D01*
X002769Y007162D01*
X002805Y007154D01*
X002839Y007142D01*
X002872Y007127D01*
X002903Y007108D01*
X002932Y007086D01*
X002958Y007061D01*
X002982Y007034D01*
X003002Y007004D01*
X003019Y006972D01*
X003032Y006938D01*
X003042Y006903D01*
X003048Y006867D01*
X003050Y006831D01*
X003048Y006795D01*
X003042Y006759D01*
X003032Y006724D01*
X003019Y006690D01*
X003002Y006658D01*
X002982Y006628D01*
X002958Y006601D01*
X002932Y006576D01*
X002903Y006554D01*
X002872Y006535D01*
X002839Y006520D01*
X002805Y006508D01*
X002769Y006500D01*
X002733Y006496D01*
X002697Y006496D01*
X002661Y006500D01*
X002625Y006508D01*
X002591Y006520D01*
X002558Y006535D01*
X002527Y006554D01*
X002498Y006576D01*
X002472Y006601D01*
X002448Y006628D01*
X002428Y006658D01*
X002411Y006690D01*
X002398Y006724D01*
X002388Y006759D01*
X002382Y006795D01*
X002380Y006831D01*
X005380Y006831D02*
X005382Y006867D01*
X005388Y006903D01*
X005398Y006938D01*
X005411Y006972D01*
X005428Y007004D01*
X005448Y007034D01*
X005472Y007061D01*
X005498Y007086D01*
X005527Y007108D01*
X005558Y007127D01*
X005591Y007142D01*
X005625Y007154D01*
X005661Y007162D01*
X005697Y007166D01*
X005733Y007166D01*
X005769Y007162D01*
X005805Y007154D01*
X005839Y007142D01*
X005872Y007127D01*
X005903Y007108D01*
X005932Y007086D01*
X005958Y007061D01*
X005982Y007034D01*
X006002Y007004D01*
X006019Y006972D01*
X006032Y006938D01*
X006042Y006903D01*
X006048Y006867D01*
X006050Y006831D01*
X006048Y006795D01*
X006042Y006759D01*
X006032Y006724D01*
X006019Y006690D01*
X006002Y006658D01*
X005982Y006628D01*
X005958Y006601D01*
X005932Y006576D01*
X005903Y006554D01*
X005872Y006535D01*
X005839Y006520D01*
X005805Y006508D01*
X005769Y006500D01*
X005733Y006496D01*
X005697Y006496D01*
X005661Y006500D01*
X005625Y006508D01*
X005591Y006520D01*
X005558Y006535D01*
X005527Y006554D01*
X005498Y006576D01*
X005472Y006601D01*
X005448Y006628D01*
X005428Y006658D01*
X005411Y006690D01*
X005398Y006724D01*
X005388Y006759D01*
X005382Y006795D01*
X005380Y006831D01*
X009073Y006831D02*
X009075Y006867D01*
X009081Y006903D01*
X009091Y006938D01*
X009104Y006972D01*
X009121Y007004D01*
X009141Y007034D01*
X009165Y007061D01*
X009191Y007086D01*
X009220Y007108D01*
X009251Y007127D01*
X009284Y007142D01*
X009318Y007154D01*
X009354Y007162D01*
X009390Y007166D01*
X009426Y007166D01*
X009462Y007162D01*
X009498Y007154D01*
X009532Y007142D01*
X009565Y007127D01*
X009596Y007108D01*
X009625Y007086D01*
X009651Y007061D01*
X009675Y007034D01*
X009695Y007004D01*
X009712Y006972D01*
X009725Y006938D01*
X009735Y006903D01*
X009741Y006867D01*
X009743Y006831D01*
X009741Y006795D01*
X009735Y006759D01*
X009725Y006724D01*
X009712Y006690D01*
X009695Y006658D01*
X009675Y006628D01*
X009651Y006601D01*
X009625Y006576D01*
X009596Y006554D01*
X009565Y006535D01*
X009532Y006520D01*
X009498Y006508D01*
X009462Y006500D01*
X009426Y006496D01*
X009390Y006496D01*
X009354Y006500D01*
X009318Y006508D01*
X009284Y006520D01*
X009251Y006535D01*
X009220Y006554D01*
X009191Y006576D01*
X009165Y006601D01*
X009141Y006628D01*
X009121Y006658D01*
X009104Y006690D01*
X009091Y006724D01*
X009081Y006759D01*
X009075Y006795D01*
X009073Y006831D01*
X012073Y006831D02*
X012075Y006867D01*
X012081Y006903D01*
X012091Y006938D01*
X012104Y006972D01*
X012121Y007004D01*
X012141Y007034D01*
X012165Y007061D01*
X012191Y007086D01*
X012220Y007108D01*
X012251Y007127D01*
X012284Y007142D01*
X012318Y007154D01*
X012354Y007162D01*
X012390Y007166D01*
X012426Y007166D01*
X012462Y007162D01*
X012498Y007154D01*
X012532Y007142D01*
X012565Y007127D01*
X012596Y007108D01*
X012625Y007086D01*
X012651Y007061D01*
X012675Y007034D01*
X012695Y007004D01*
X012712Y006972D01*
X012725Y006938D01*
X012735Y006903D01*
X012741Y006867D01*
X012743Y006831D01*
X012741Y006795D01*
X012735Y006759D01*
X012725Y006724D01*
X012712Y006690D01*
X012695Y006658D01*
X012675Y006628D01*
X012651Y006601D01*
X012625Y006576D01*
X012596Y006554D01*
X012565Y006535D01*
X012532Y006520D01*
X012498Y006508D01*
X012462Y006500D01*
X012426Y006496D01*
X012390Y006496D01*
X012354Y006500D01*
X012318Y006508D01*
X012284Y006520D01*
X012251Y006535D01*
X012220Y006554D01*
X012191Y006576D01*
X012165Y006601D01*
X012141Y006628D01*
X012121Y006658D01*
X012104Y006690D01*
X012091Y006724D01*
X012081Y006759D01*
X012075Y006795D01*
X012073Y006831D01*
X012073Y016674D02*
X012075Y016710D01*
X012081Y016746D01*
X012091Y016781D01*
X012104Y016815D01*
X012121Y016847D01*
X012141Y016877D01*
X012165Y016904D01*
X012191Y016929D01*
X012220Y016951D01*
X012251Y016970D01*
X012284Y016985D01*
X012318Y016997D01*
X012354Y017005D01*
X012390Y017009D01*
X012426Y017009D01*
X012462Y017005D01*
X012498Y016997D01*
X012532Y016985D01*
X012565Y016970D01*
X012596Y016951D01*
X012625Y016929D01*
X012651Y016904D01*
X012675Y016877D01*
X012695Y016847D01*
X012712Y016815D01*
X012725Y016781D01*
X012735Y016746D01*
X012741Y016710D01*
X012743Y016674D01*
X012741Y016638D01*
X012735Y016602D01*
X012725Y016567D01*
X012712Y016533D01*
X012695Y016501D01*
X012675Y016471D01*
X012651Y016444D01*
X012625Y016419D01*
X012596Y016397D01*
X012565Y016378D01*
X012532Y016363D01*
X012498Y016351D01*
X012462Y016343D01*
X012426Y016339D01*
X012390Y016339D01*
X012354Y016343D01*
X012318Y016351D01*
X012284Y016363D01*
X012251Y016378D01*
X012220Y016397D01*
X012191Y016419D01*
X012165Y016444D01*
X012141Y016471D01*
X012121Y016501D01*
X012104Y016533D01*
X012091Y016567D01*
X012081Y016602D01*
X012075Y016638D01*
X012073Y016674D01*
X009073Y016674D02*
X009075Y016710D01*
X009081Y016746D01*
X009091Y016781D01*
X009104Y016815D01*
X009121Y016847D01*
X009141Y016877D01*
X009165Y016904D01*
X009191Y016929D01*
X009220Y016951D01*
X009251Y016970D01*
X009284Y016985D01*
X009318Y016997D01*
X009354Y017005D01*
X009390Y017009D01*
X009426Y017009D01*
X009462Y017005D01*
X009498Y016997D01*
X009532Y016985D01*
X009565Y016970D01*
X009596Y016951D01*
X009625Y016929D01*
X009651Y016904D01*
X009675Y016877D01*
X009695Y016847D01*
X009712Y016815D01*
X009725Y016781D01*
X009735Y016746D01*
X009741Y016710D01*
X009743Y016674D01*
X009741Y016638D01*
X009735Y016602D01*
X009725Y016567D01*
X009712Y016533D01*
X009695Y016501D01*
X009675Y016471D01*
X009651Y016444D01*
X009625Y016419D01*
X009596Y016397D01*
X009565Y016378D01*
X009532Y016363D01*
X009498Y016351D01*
X009462Y016343D01*
X009426Y016339D01*
X009390Y016339D01*
X009354Y016343D01*
X009318Y016351D01*
X009284Y016363D01*
X009251Y016378D01*
X009220Y016397D01*
X009191Y016419D01*
X009165Y016444D01*
X009141Y016471D01*
X009121Y016501D01*
X009104Y016533D01*
X009091Y016567D01*
X009081Y016602D01*
X009075Y016638D01*
X009073Y016674D01*
X009073Y019674D02*
X009075Y019710D01*
X009081Y019746D01*
X009091Y019781D01*
X009104Y019815D01*
X009121Y019847D01*
X009141Y019877D01*
X009165Y019904D01*
X009191Y019929D01*
X009220Y019951D01*
X009251Y019970D01*
X009284Y019985D01*
X009318Y019997D01*
X009354Y020005D01*
X009390Y020009D01*
X009426Y020009D01*
X009462Y020005D01*
X009498Y019997D01*
X009532Y019985D01*
X009565Y019970D01*
X009596Y019951D01*
X009625Y019929D01*
X009651Y019904D01*
X009675Y019877D01*
X009695Y019847D01*
X009712Y019815D01*
X009725Y019781D01*
X009735Y019746D01*
X009741Y019710D01*
X009743Y019674D01*
X009741Y019638D01*
X009735Y019602D01*
X009725Y019567D01*
X009712Y019533D01*
X009695Y019501D01*
X009675Y019471D01*
X009651Y019444D01*
X009625Y019419D01*
X009596Y019397D01*
X009565Y019378D01*
X009532Y019363D01*
X009498Y019351D01*
X009462Y019343D01*
X009426Y019339D01*
X009390Y019339D01*
X009354Y019343D01*
X009318Y019351D01*
X009284Y019363D01*
X009251Y019378D01*
X009220Y019397D01*
X009191Y019419D01*
X009165Y019444D01*
X009141Y019471D01*
X009121Y019501D01*
X009104Y019533D01*
X009091Y019567D01*
X009081Y019602D01*
X009075Y019638D01*
X009073Y019674D01*
X005380Y019674D02*
X005382Y019710D01*
X005388Y019746D01*
X005398Y019781D01*
X005411Y019815D01*
X005428Y019847D01*
X005448Y019877D01*
X005472Y019904D01*
X005498Y019929D01*
X005527Y019951D01*
X005558Y019970D01*
X005591Y019985D01*
X005625Y019997D01*
X005661Y020005D01*
X005697Y020009D01*
X005733Y020009D01*
X005769Y020005D01*
X005805Y019997D01*
X005839Y019985D01*
X005872Y019970D01*
X005903Y019951D01*
X005932Y019929D01*
X005958Y019904D01*
X005982Y019877D01*
X006002Y019847D01*
X006019Y019815D01*
X006032Y019781D01*
X006042Y019746D01*
X006048Y019710D01*
X006050Y019674D01*
X006048Y019638D01*
X006042Y019602D01*
X006032Y019567D01*
X006019Y019533D01*
X006002Y019501D01*
X005982Y019471D01*
X005958Y019444D01*
X005932Y019419D01*
X005903Y019397D01*
X005872Y019378D01*
X005839Y019363D01*
X005805Y019351D01*
X005769Y019343D01*
X005733Y019339D01*
X005697Y019339D01*
X005661Y019343D01*
X005625Y019351D01*
X005591Y019363D01*
X005558Y019378D01*
X005527Y019397D01*
X005498Y019419D01*
X005472Y019444D01*
X005448Y019471D01*
X005428Y019501D01*
X005411Y019533D01*
X005398Y019567D01*
X005388Y019602D01*
X005382Y019638D01*
X005380Y019674D01*
X002380Y019674D02*
X002382Y019710D01*
X002388Y019746D01*
X002398Y019781D01*
X002411Y019815D01*
X002428Y019847D01*
X002448Y019877D01*
X002472Y019904D01*
X002498Y019929D01*
X002527Y019951D01*
X002558Y019970D01*
X002591Y019985D01*
X002625Y019997D01*
X002661Y020005D01*
X002697Y020009D01*
X002733Y020009D01*
X002769Y020005D01*
X002805Y019997D01*
X002839Y019985D01*
X002872Y019970D01*
X002903Y019951D01*
X002932Y019929D01*
X002958Y019904D01*
X002982Y019877D01*
X003002Y019847D01*
X003019Y019815D01*
X003032Y019781D01*
X003042Y019746D01*
X003048Y019710D01*
X003050Y019674D01*
X003048Y019638D01*
X003042Y019602D01*
X003032Y019567D01*
X003019Y019533D01*
X003002Y019501D01*
X002982Y019471D01*
X002958Y019444D01*
X002932Y019419D01*
X002903Y019397D01*
X002872Y019378D01*
X002839Y019363D01*
X002805Y019351D01*
X002769Y019343D01*
X002733Y019339D01*
X002697Y019339D01*
X002661Y019343D01*
X002625Y019351D01*
X002591Y019363D01*
X002558Y019378D01*
X002527Y019397D01*
X002498Y019419D01*
X002472Y019444D01*
X002448Y019471D01*
X002428Y019501D01*
X002411Y019533D01*
X002398Y019567D01*
X002388Y019602D01*
X002382Y019638D01*
X002380Y019674D01*
X002380Y016674D02*
X002382Y016710D01*
X002388Y016746D01*
X002398Y016781D01*
X002411Y016815D01*
X002428Y016847D01*
X002448Y016877D01*
X002472Y016904D01*
X002498Y016929D01*
X002527Y016951D01*
X002558Y016970D01*
X002591Y016985D01*
X002625Y016997D01*
X002661Y017005D01*
X002697Y017009D01*
X002733Y017009D01*
X002769Y017005D01*
X002805Y016997D01*
X002839Y016985D01*
X002872Y016970D01*
X002903Y016951D01*
X002932Y016929D01*
X002958Y016904D01*
X002982Y016877D01*
X003002Y016847D01*
X003019Y016815D01*
X003032Y016781D01*
X003042Y016746D01*
X003048Y016710D01*
X003050Y016674D01*
X003048Y016638D01*
X003042Y016602D01*
X003032Y016567D01*
X003019Y016533D01*
X003002Y016501D01*
X002982Y016471D01*
X002958Y016444D01*
X002932Y016419D01*
X002903Y016397D01*
X002872Y016378D01*
X002839Y016363D01*
X002805Y016351D01*
X002769Y016343D01*
X002733Y016339D01*
X002697Y016339D01*
X002661Y016343D01*
X002625Y016351D01*
X002591Y016363D01*
X002558Y016378D01*
X002527Y016397D01*
X002498Y016419D01*
X002472Y016444D01*
X002448Y016471D01*
X002428Y016501D01*
X002411Y016533D01*
X002398Y016567D01*
X002388Y016602D01*
X002382Y016638D01*
X002380Y016674D01*
X005380Y016674D02*
X005382Y016710D01*
X005388Y016746D01*
X005398Y016781D01*
X005411Y016815D01*
X005428Y016847D01*
X005448Y016877D01*
X005472Y016904D01*
X005498Y016929D01*
X005527Y016951D01*
X005558Y016970D01*
X005591Y016985D01*
X005625Y016997D01*
X005661Y017005D01*
X005697Y017009D01*
X005733Y017009D01*
X005769Y017005D01*
X005805Y016997D01*
X005839Y016985D01*
X005872Y016970D01*
X005903Y016951D01*
X005932Y016929D01*
X005958Y016904D01*
X005982Y016877D01*
X006002Y016847D01*
X006019Y016815D01*
X006032Y016781D01*
X006042Y016746D01*
X006048Y016710D01*
X006050Y016674D01*
X006048Y016638D01*
X006042Y016602D01*
X006032Y016567D01*
X006019Y016533D01*
X006002Y016501D01*
X005982Y016471D01*
X005958Y016444D01*
X005932Y016419D01*
X005903Y016397D01*
X005872Y016378D01*
X005839Y016363D01*
X005805Y016351D01*
X005769Y016343D01*
X005733Y016339D01*
X005697Y016339D01*
X005661Y016343D01*
X005625Y016351D01*
X005591Y016363D01*
X005558Y016378D01*
X005527Y016397D01*
X005498Y016419D01*
X005472Y016444D01*
X005448Y016471D01*
X005428Y016501D01*
X005411Y016533D01*
X005398Y016567D01*
X005388Y016602D01*
X005382Y016638D01*
X005380Y016674D01*
X012073Y019674D02*
X012075Y019710D01*
X012081Y019746D01*
X012091Y019781D01*
X012104Y019815D01*
X012121Y019847D01*
X012141Y019877D01*
X012165Y019904D01*
X012191Y019929D01*
X012220Y019951D01*
X012251Y019970D01*
X012284Y019985D01*
X012318Y019997D01*
X012354Y020005D01*
X012390Y020009D01*
X012426Y020009D01*
X012462Y020005D01*
X012498Y019997D01*
X012532Y019985D01*
X012565Y019970D01*
X012596Y019951D01*
X012625Y019929D01*
X012651Y019904D01*
X012675Y019877D01*
X012695Y019847D01*
X012712Y019815D01*
X012725Y019781D01*
X012735Y019746D01*
X012741Y019710D01*
X012743Y019674D01*
X012741Y019638D01*
X012735Y019602D01*
X012725Y019567D01*
X012712Y019533D01*
X012695Y019501D01*
X012675Y019471D01*
X012651Y019444D01*
X012625Y019419D01*
X012596Y019397D01*
X012565Y019378D01*
X012532Y019363D01*
X012498Y019351D01*
X012462Y019343D01*
X012426Y019339D01*
X012390Y019339D01*
X012354Y019343D01*
X012318Y019351D01*
X012284Y019363D01*
X012251Y019378D01*
X012220Y019397D01*
X012191Y019419D01*
X012165Y019444D01*
X012141Y019471D01*
X012121Y019501D01*
X012104Y019533D01*
X012091Y019567D01*
X012081Y019602D01*
X012075Y019638D01*
X012073Y019674D01*
X015766Y019674D02*
X015768Y019710D01*
X015774Y019746D01*
X015784Y019781D01*
X015797Y019815D01*
X015814Y019847D01*
X015834Y019877D01*
X015858Y019904D01*
X015884Y019929D01*
X015913Y019951D01*
X015944Y019970D01*
X015977Y019985D01*
X016011Y019997D01*
X016047Y020005D01*
X016083Y020009D01*
X016119Y020009D01*
X016155Y020005D01*
X016191Y019997D01*
X016225Y019985D01*
X016258Y019970D01*
X016289Y019951D01*
X016318Y019929D01*
X016344Y019904D01*
X016368Y019877D01*
X016388Y019847D01*
X016405Y019815D01*
X016418Y019781D01*
X016428Y019746D01*
X016434Y019710D01*
X016436Y019674D01*
X016434Y019638D01*
X016428Y019602D01*
X016418Y019567D01*
X016405Y019533D01*
X016388Y019501D01*
X016368Y019471D01*
X016344Y019444D01*
X016318Y019419D01*
X016289Y019397D01*
X016258Y019378D01*
X016225Y019363D01*
X016191Y019351D01*
X016155Y019343D01*
X016119Y019339D01*
X016083Y019339D01*
X016047Y019343D01*
X016011Y019351D01*
X015977Y019363D01*
X015944Y019378D01*
X015913Y019397D01*
X015884Y019419D01*
X015858Y019444D01*
X015834Y019471D01*
X015814Y019501D01*
X015797Y019533D01*
X015784Y019567D01*
X015774Y019602D01*
X015768Y019638D01*
X015766Y019674D01*
X015766Y016674D02*
X015768Y016710D01*
X015774Y016746D01*
X015784Y016781D01*
X015797Y016815D01*
X015814Y016847D01*
X015834Y016877D01*
X015858Y016904D01*
X015884Y016929D01*
X015913Y016951D01*
X015944Y016970D01*
X015977Y016985D01*
X016011Y016997D01*
X016047Y017005D01*
X016083Y017009D01*
X016119Y017009D01*
X016155Y017005D01*
X016191Y016997D01*
X016225Y016985D01*
X016258Y016970D01*
X016289Y016951D01*
X016318Y016929D01*
X016344Y016904D01*
X016368Y016877D01*
X016388Y016847D01*
X016405Y016815D01*
X016418Y016781D01*
X016428Y016746D01*
X016434Y016710D01*
X016436Y016674D01*
X016434Y016638D01*
X016428Y016602D01*
X016418Y016567D01*
X016405Y016533D01*
X016388Y016501D01*
X016368Y016471D01*
X016344Y016444D01*
X016318Y016419D01*
X016289Y016397D01*
X016258Y016378D01*
X016225Y016363D01*
X016191Y016351D01*
X016155Y016343D01*
X016119Y016339D01*
X016083Y016339D01*
X016047Y016343D01*
X016011Y016351D01*
X015977Y016363D01*
X015944Y016378D01*
X015913Y016397D01*
X015884Y016419D01*
X015858Y016444D01*
X015834Y016471D01*
X015814Y016501D01*
X015797Y016533D01*
X015784Y016567D01*
X015774Y016602D01*
X015768Y016638D01*
X015766Y016674D01*
X018766Y016674D02*
X018768Y016710D01*
X018774Y016746D01*
X018784Y016781D01*
X018797Y016815D01*
X018814Y016847D01*
X018834Y016877D01*
X018858Y016904D01*
X018884Y016929D01*
X018913Y016951D01*
X018944Y016970D01*
X018977Y016985D01*
X019011Y016997D01*
X019047Y017005D01*
X019083Y017009D01*
X019119Y017009D01*
X019155Y017005D01*
X019191Y016997D01*
X019225Y016985D01*
X019258Y016970D01*
X019289Y016951D01*
X019318Y016929D01*
X019344Y016904D01*
X019368Y016877D01*
X019388Y016847D01*
X019405Y016815D01*
X019418Y016781D01*
X019428Y016746D01*
X019434Y016710D01*
X019436Y016674D01*
X019434Y016638D01*
X019428Y016602D01*
X019418Y016567D01*
X019405Y016533D01*
X019388Y016501D01*
X019368Y016471D01*
X019344Y016444D01*
X019318Y016419D01*
X019289Y016397D01*
X019258Y016378D01*
X019225Y016363D01*
X019191Y016351D01*
X019155Y016343D01*
X019119Y016339D01*
X019083Y016339D01*
X019047Y016343D01*
X019011Y016351D01*
X018977Y016363D01*
X018944Y016378D01*
X018913Y016397D01*
X018884Y016419D01*
X018858Y016444D01*
X018834Y016471D01*
X018814Y016501D01*
X018797Y016533D01*
X018784Y016567D01*
X018774Y016602D01*
X018768Y016638D01*
X018766Y016674D01*
X018766Y019674D02*
X018768Y019710D01*
X018774Y019746D01*
X018784Y019781D01*
X018797Y019815D01*
X018814Y019847D01*
X018834Y019877D01*
X018858Y019904D01*
X018884Y019929D01*
X018913Y019951D01*
X018944Y019970D01*
X018977Y019985D01*
X019011Y019997D01*
X019047Y020005D01*
X019083Y020009D01*
X019119Y020009D01*
X019155Y020005D01*
X019191Y019997D01*
X019225Y019985D01*
X019258Y019970D01*
X019289Y019951D01*
X019318Y019929D01*
X019344Y019904D01*
X019368Y019877D01*
X019388Y019847D01*
X019405Y019815D01*
X019418Y019781D01*
X019428Y019746D01*
X019434Y019710D01*
X019436Y019674D01*
X019434Y019638D01*
X019428Y019602D01*
X019418Y019567D01*
X019405Y019533D01*
X019388Y019501D01*
X019368Y019471D01*
X019344Y019444D01*
X019318Y019419D01*
X019289Y019397D01*
X019258Y019378D01*
X019225Y019363D01*
X019191Y019351D01*
X019155Y019343D01*
X019119Y019339D01*
X019083Y019339D01*
X019047Y019343D01*
X019011Y019351D01*
X018977Y019363D01*
X018944Y019378D01*
X018913Y019397D01*
X018884Y019419D01*
X018858Y019444D01*
X018834Y019471D01*
X018814Y019501D01*
X018797Y019533D01*
X018784Y019567D01*
X018774Y019602D01*
X018768Y019638D01*
X018766Y019674D01*
M02*
