G75*
%MOIN*%
%OFA0B0*%
%FSLAX24Y24*%
%IPPOS*%
%LPD*%
%AMOC8*
5,1,8,0,0,1.08239X$1,22.5*
%
%ADD10C,0.0515*%
%ADD11C,0.2756*%
%ADD12R,0.0396X0.0396*%
%ADD13C,0.0160*%
%ADD14C,0.0100*%
%ADD15C,0.0070*%
%ADD16C,0.0060*%
D10*
X003851Y007700D03*
X003487Y008331D03*
X003851Y008962D03*
X004215Y008331D03*
X004580Y007700D03*
X004944Y008331D03*
X004580Y008962D03*
X010180Y008331D03*
X010544Y007700D03*
X011272Y007700D03*
X010908Y008331D03*
X010544Y008962D03*
X011272Y008962D03*
X011637Y008331D03*
X016873Y008331D03*
X017601Y008331D03*
X017237Y007700D03*
X017965Y007700D03*
X018330Y008331D03*
X017965Y008962D03*
X017237Y008962D03*
X023566Y008331D03*
X023930Y007700D03*
X024658Y007700D03*
X024294Y008331D03*
X023930Y008962D03*
X024658Y008962D03*
X025022Y008331D03*
X018033Y017742D03*
X018033Y018605D03*
X017170Y018605D03*
X017170Y017742D03*
X011340Y017742D03*
X011340Y018605D03*
X010477Y018605D03*
X010477Y017742D03*
X004647Y017742D03*
X004647Y018605D03*
X003784Y018605D03*
X003784Y017742D03*
D11*
X004767Y002189D03*
X014215Y002189D03*
X020121Y002189D03*
X023664Y024237D03*
X014215Y024237D03*
X008310Y024237D03*
D12*
X006656Y011028D03*
X010554Y006618D03*
X011223Y006658D03*
X013605Y010811D03*
X017247Y005949D03*
X019196Y010949D03*
X023920Y005949D03*
D13*
X017247Y005949D01*
X017168Y005870D01*
X010967Y005870D01*
X010593Y006244D01*
X010259Y005910D01*
X004629Y005910D01*
X003851Y006687D01*
X003851Y007700D01*
X004580Y007700D02*
X009492Y007700D01*
X009493Y007701D01*
X009845Y007701D01*
X010397Y007150D01*
X010967Y007150D01*
X011223Y006894D01*
X011223Y006658D01*
X010554Y006618D02*
X010554Y006284D01*
X010593Y006244D01*
X011272Y007700D02*
X016460Y007700D01*
X017227Y006933D01*
X017759Y006933D01*
X017916Y007091D01*
X017916Y007651D01*
X017965Y007700D01*
X023153Y007700D01*
X023802Y007052D01*
X024255Y007052D01*
X024550Y007347D01*
X024550Y007592D01*
X024658Y007700D01*
X025022Y008331D02*
X025042Y008331D01*
X025298Y008587D01*
X025298Y009099D01*
X023526Y010870D01*
X019668Y010870D01*
X019393Y011146D01*
X019196Y010949D01*
X019589Y010555D01*
X019393Y011146D02*
X020219Y011973D01*
X020219Y017878D01*
X019493Y018605D01*
X018033Y018605D01*
X018016Y018605D01*
X017503Y019118D01*
X016932Y019118D01*
X016460Y018646D01*
X013034Y018646D01*
X013369Y018311D01*
X013369Y011048D01*
X013605Y010811D01*
X006656Y011028D02*
X006656Y017896D01*
X005948Y018605D01*
X009549Y018605D01*
X010180Y019237D01*
X010708Y019237D01*
X011340Y018605D01*
X011381Y018646D01*
X013034Y018646D01*
X005948Y018605D02*
X004647Y018605D01*
D14*
X011340Y018605D02*
X011340Y018608D01*
X018033Y018605D02*
X018033Y018608D01*
X011283Y008528D02*
X011235Y008491D01*
X011184Y008457D01*
X011132Y008426D01*
X011078Y008397D01*
X011023Y008372D01*
X010967Y008350D01*
X010909Y008331D01*
X011952Y008764D02*
X016637Y008764D01*
X017286Y008469D02*
X017314Y008441D01*
X017344Y008416D01*
X017377Y008394D01*
X017411Y008375D01*
X017447Y008360D01*
X017485Y008347D01*
X017523Y008338D01*
X017562Y008333D01*
X017601Y008331D01*
X017739Y008331D01*
X017857Y008449D01*
X018684Y008784D02*
X023349Y008784D01*
X024117Y008410D02*
X024294Y008331D01*
X009807Y008961D02*
X009765Y008983D01*
X009722Y009001D01*
X009677Y009016D01*
X009632Y009027D01*
X009585Y009035D01*
X009538Y009039D01*
X009491Y009040D01*
X005869Y009040D01*
X005800Y009041D01*
X005731Y009039D01*
X005662Y009033D01*
X005594Y009024D01*
X005526Y009011D01*
X005459Y008994D01*
X005393Y008975D01*
X005328Y008951D01*
X005264Y008925D01*
X005202Y008895D01*
X005141Y008863D01*
D15*
X009806Y008961D02*
X010908Y008331D01*
X011283Y008528D02*
X011331Y008564D01*
X011381Y008598D01*
X011433Y008629D01*
X011486Y008657D01*
X011541Y008682D01*
X011597Y008703D01*
X011655Y008722D01*
X011713Y008737D01*
X011772Y008749D01*
X011832Y008757D01*
X011892Y008762D01*
X011952Y008764D01*
X016637Y008764D02*
X016693Y008760D01*
X016749Y008754D01*
X016805Y008743D01*
X016859Y008730D01*
X016913Y008713D01*
X016966Y008693D01*
X017017Y008669D01*
X017067Y008643D01*
X017115Y008614D01*
X017161Y008581D01*
X017205Y008546D01*
X017247Y008509D01*
X017287Y008468D01*
X023350Y008784D02*
X023397Y008783D01*
X023444Y008780D01*
X023491Y008772D01*
X023537Y008761D01*
X023582Y008747D01*
X023625Y008729D01*
X023668Y008708D01*
X023708Y008684D01*
X023747Y008656D01*
X023783Y008626D01*
X023834Y008583D01*
X023887Y008542D01*
X023942Y008505D01*
X023998Y008470D01*
X024057Y008438D01*
X024117Y008409D01*
D16*
X018684Y008784D02*
X018618Y008783D01*
X018553Y008778D01*
X018488Y008770D01*
X018424Y008758D01*
X018360Y008743D01*
X018297Y008723D01*
X018236Y008701D01*
X018176Y008674D01*
X018118Y008645D01*
X018061Y008612D01*
X018007Y008575D01*
X017954Y008536D01*
X017904Y008494D01*
X017857Y008449D01*
X005141Y008863D02*
X004215Y008331D01*
M02*
