%
M48
M72
T01C0.0236
T02C0.0315
T03C0.0669
T04C0.1614
%
T01
X10554Y6618
X11223Y6658
X13605Y10811
X17247Y5949
X19196Y10949
X23920Y5949
X6656Y11028
T02
X4580Y8962
X4944Y8331
X4580Y7700
X4215Y8331
X3487Y8331
X3851Y7700
X3851Y8962
X10180Y8331
X10544Y7700
X11272Y7700
X10908Y8331
X10544Y8962
X11272Y8962
X11637Y8331
X16873Y8331
X17601Y8331
X17237Y7700
X17965Y7700
X18330Y8331
X17965Y8962
X17237Y8962
X23566Y8331
X23930Y7700
X24658Y7700
X24294Y8331
X23930Y8962
X24658Y8962
X25022Y8331
X18033Y17742
X18033Y18605
X17170Y18605
X17170Y17742
X11340Y17742
X11340Y18605
X10477Y18605
X10477Y17742
X4647Y17742
X4647Y18605
X3784Y18605
X3784Y17742
T03
X2715Y16674
X2715Y19674
X5715Y19674
X5715Y16674
X9408Y16674
X12408Y16674
X12408Y19674
X9408Y19674
X16101Y19674
X19101Y19674
X19101Y16674
X16101Y16674
X16101Y9831
X19101Y9831
X19101Y6831
X16101Y6831
X12408Y6831
X9408Y6831
X9408Y9831
X12408Y9831
X5715Y9831
X2715Y9831
X2715Y6831
X5715Y6831
X22794Y6831
X25794Y6831
X25794Y9831
X22794Y9831
T04
X4767Y2189
X14215Y2189
X20121Y2189
X23664Y24237
X14215Y24237
X8310Y24237
M30
